<svg xmlns="http://www.w3.org/2000/svg" xmlns:xlink="http://www.w3.org/1999/xlink" width="40" zoomAndPan="magnify" viewBox="0 0 30 30.000001" height="40" preserveAspectRatio="xMidYMid meet" version="1.0"><defs><g/><clipPath id="4a7fa7d30f"><path d="M 0.484375 9.980469 L 9.917969 9.980469 L 9.917969 19.414062 L 0.484375 19.414062 Z M 0.484375 9.980469 " clip-rule="nonzero"/></clipPath><clipPath id="282c68095a"><path d="M 11 13 L 29.515625 13 L 29.515625 19 L 11 19 Z M 11 13 " clip-rule="nonzero"/></clipPath></defs><g clip-path="url(#4a7fa7d30f)"><path fill="#2563eb" d="M 5.203125 9.980469 C 7.808594 9.980469 9.917969 12.09375 9.917969 14.699219 L 9.917969 18 C 9.917969 18.1875 9.882812 18.367188 9.8125 18.542969 C 9.738281 18.714844 9.636719 18.867188 9.503906 19 C 9.371094 19.132812 9.21875 19.234375 9.046875 19.308594 C 8.871094 19.378906 8.691406 19.414062 8.503906 19.414062 L 5.4375 19.414062 L 5.4375 17.34375 C 5.4375 16.875 5.464844 16.382812 5.714844 15.980469 C 6.089844 15.371094 6.632812 15.007812 7.34375 14.890625 L 7.433594 14.875 C 7.519531 14.847656 7.558594 14.789062 7.558594 14.699219 C 7.558594 14.609375 7.519531 14.546875 7.433594 14.519531 L 7.34375 14.503906 C 6.84375 14.421875 6.414062 14.203125 6.054688 13.84375 C 5.695312 13.484375 5.476562 13.058594 5.394531 12.558594 L 5.378906 12.464844 C 5.351562 12.382812 5.292969 12.339844 5.203125 12.339844 C 5.113281 12.339844 5.050781 12.382812 5.023438 12.464844 L 5.007812 12.558594 C 4.894531 13.265625 4.527344 13.808594 3.917969 14.183594 C 3.515625 14.433594 3.027344 14.460938 2.554688 14.460938 L 0.488281 14.460938 C 0.613281 11.964844 2.675781 9.980469 5.203125 9.980469 Z M 5.203125 9.980469 " fill-opacity="1" fill-rule="nonzero"/><path fill="#2563eb" d="M 0.484375 14.933594 L 2.554688 14.933594 C 3.027344 14.933594 3.515625 14.960938 3.917969 15.210938 C 4.234375 15.40625 4.492188 15.664062 4.6875 15.980469 C 4.9375 16.382812 4.964844 16.875 4.964844 17.34375 L 4.964844 19.414062 L 1.898438 19.414062 C 1.710938 19.414062 1.53125 19.378906 1.359375 19.308594 C 1.183594 19.234375 1.03125 19.132812 0.898438 19 C 0.765625 18.867188 0.664062 18.714844 0.589844 18.542969 C 0.519531 18.367188 0.484375 18.1875 0.484375 18 Z M 9.917969 10.453125 C 9.917969 10.582031 9.875 10.691406 9.78125 10.785156 C 9.6875 10.878906 9.578125 10.921875 9.449219 10.921875 C 9.316406 10.921875 9.207031 10.878906 9.113281 10.785156 C 9.023438 10.691406 8.976562 10.582031 8.976562 10.453125 C 8.976562 10.320312 9.023438 10.210938 9.113281 10.117188 C 9.207031 10.027344 9.316406 9.980469 9.449219 9.980469 C 9.578125 9.980469 9.6875 10.027344 9.78125 10.117188 C 9.875 10.210938 9.917969 10.320312 9.917969 10.453125 Z M 9.917969 10.453125 " fill-opacity="1" fill-rule="nonzero"/></g><path stroke-linecap="butt" transform="matrix(0.0138474, 0, 0, 0.0138474, 10.57258, 11.135141)" fill="none" stroke-linejoin="miter" d="M 55.972767 161.189106 C 54.562302 170.216085 53.151836 178.114691 52.58765 184.602832 C 51.741371 191.373066 51.177185 196.450741 51.177185 200.400044 C 51.177185 202.938882 51.459278 204.913533 52.023464 206.606092 C 52.305557 208.016557 52.869743 209.144929 53.998116 209.991209 C 54.562302 210.555395 55.690674 211.119581 57.10114 211.96586 C 60.76835 213.940512 62.743001 216.761442 62.743001 220.428652 C 62.743001 224.660049 59.92207 227.763072 54.280209 229.455631 C 48.638347 231.148189 38.200903 231.994469 23.24997 231.994469 C 11.966247 231.994469 4.067641 231.430282 -0.163755 229.737724 C -4.113058 228.327259 -6.369803 225.788421 -6.369803 222.121211 C -6.369803 220.146559 -5.805616 218.736094 -5.24143 217.325629 C -4.395151 215.915163 -3.266779 214.504698 -1.856313 213.658419 C -1.010034 213.094232 0.682524 212.247953 3.221362 211.119581 C 6.042293 210.273302 7.734851 209.144929 8.58113 207.734464 C 9.42741 206.888185 9.991596 204.913533 10.837875 202.374695 C 11.684154 199.835858 12.530433 196.168648 13.376713 191.937252 C 17.043923 173.319109 19.864853 156.675617 21.839505 141.724684 C 23.532063 126.773751 24.378343 113.797469 24.378343 103.360026 C 24.378343 99.692816 24.378343 97.436071 23.814157 96.589792 C 23.24997 95.46142 22.121598 94.61514 20.42904 93.486768 C 20.146947 93.204675 19.58276 92.922582 19.018574 92.640489 C 14.787178 90.101651 12.530433 87.28072 12.530433 84.177696 C 12.530433 79.664207 15.069271 76.561183 19.864853 74.586532 C 24.942529 72.61188 32.841135 71.483508 44.124858 71.483508 C 44.689044 71.483508 46.945789 71.483508 51.459278 71.483508 C 55.690674 71.765601 59.92207 71.765601 63.871373 71.765601 C 67.538583 71.765601 72.898352 71.765601 79.386493 71.483508 C 85.874633 71.483508 90.388123 71.483508 93.209053 71.483508 C 110.134638 71.483508 122.828826 74.586532 131.009526 80.79258 C 139.190225 86.998627 143.139528 96.307699 143.139528 109.001887 C 143.139528 119.721424 140.036504 129.030496 133.830456 136.647009 C 127.342316 144.263522 118.59743 149.341197 107.5958 151.597942 L 107.5958 153.2905 C 112.673476 155.265152 116.904872 158.368176 120.007896 162.317479 C 123.393013 166.266782 125.649757 171.344457 127.060223 177.268412 C 127.906502 180.935622 129.034874 185.731204 129.881153 191.655159 C 132.137898 204.067254 135.805108 209.991209 140.60069 209.991209 C 141.446969 209.991209 142.293249 209.991209 143.421621 209.991209 C 144.2679 209.709115 145.114179 209.709115 145.678366 209.709115 C 147.370924 209.709115 148.781389 209.991209 149.627669 210.837488 C 150.473948 211.683767 150.756041 213.094232 150.756041 215.068884 C 150.756041 219.864466 147.93511 223.813769 142.575342 227.198886 C 136.93348 230.30191 129.881153 231.994469 121.700454 231.994469 C 117.186965 231.994469 112.955569 231.430282 109.288359 230.30191 C 105.621149 229.173538 102.518125 227.480979 100.26138 225.506328 C 96.029984 221.557025 92.362774 212.812139 89.823936 198.425392 C 89.25975 195.886555 88.977657 193.62981 88.695564 192.219345 C 86.43882 179.807249 83.335796 171.344457 79.950679 166.830968 C 76.283469 162.599572 71.205793 160.342827 64.43556 160.342827 C 63.025094 160.342827 61.614629 160.342827 60.204163 160.62492 C 58.793698 160.62492 57.383233 160.907013 55.972767 161.189106 Z M 59.357884 138.057474 C 61.332536 138.339567 63.58928 138.339567 65.281839 138.62166 C 67.25649 138.62166 69.231142 138.62166 70.9237 138.62166 C 81.92533 138.62166 90.388123 136.647009 95.747891 132.415613 C 101.389753 128.466309 104.210683 121.978169 104.210683 113.515376 C 104.210683 107.027236 101.953939 101.385374 98.004636 97.436071 C 93.773239 93.204675 88.413471 91.230023 81.643237 91.230023 C 77.411841 91.230023 74.026724 91.512116 71.205793 91.79421 C 68.384863 92.358396 66.692304 92.922582 65.846025 93.768861 C 65.281839 94.050954 64.999746 95.46142 64.43556 97.436071 C 64.153466 99.692816 63.58928 102.513746 63.307187 106.463049 Z M 213.380704 214.504698 C 207.174656 220.428652 199.840236 225.224235 191.94163 228.609352 C 184.043024 231.994469 176.426511 233.687027 169.092091 233.687027 C 160.629299 233.687027 154.141158 231.148189 149.627669 226.070514 C 145.114179 220.992839 142.857435 213.658419 142.857435 204.349347 C 142.857435 197.29702 143.985807 187.987949 146.242552 175.857946 C 148.499296 163.727944 149.627669 155.265152 149.627669 150.469569 C 149.627669 148.494918 149.345576 147.366546 148.781389 146.520266 C 148.217203 145.95608 146.806738 145.109801 144.832086 144.263522 C 144.549993 144.263522 143.985807 143.981429 143.421621 143.699336 C 139.472318 142.28887 137.497666 140.032126 137.497666 137.211195 C 137.497666 135.236543 138.343946 133.261892 140.318597 131.569333 C 142.293249 129.876775 145.396272 128.184216 149.909762 126.491658 C 157.808368 123.388634 164.014416 121.131889 168.527905 119.721424 C 173.041394 118.310959 176.426511 117.746773 178.965349 117.746773 C 182.068372 117.746773 184.60721 118.593052 186.299769 120.567703 C 187.710234 122.260262 188.556513 125.081193 188.556513 129.030496 C 188.556513 134.390264 187.146048 144.263522 183.760931 158.932362 C 180.657907 173.601202 178.965349 185.167018 178.965349 193.62981 C 178.965349 198.707486 179.811628 202.092602 181.222093 204.349347 C 182.632559 206.606092 185.171396 207.734464 188.556513 207.734464 C 196.455119 207.734464 202.096981 203.785161 206.328377 195.886555 C 210.27768 187.987949 213.380704 173.037016 215.637449 151.315849 C 215.919542 149.341197 216.201635 146.520266 216.483728 143.135149 C 217.047914 134.672357 218.458379 129.312589 220.150938 127.337937 C 221.843496 125.363286 225.510706 123.388634 231.152568 121.413983 C 236.794429 119.439331 242.436291 118.593052 247.796059 118.593052 C 251.181176 118.593052 253.437921 119.157238 254.848386 120.28561 C 256.258852 121.413983 256.823038 123.106541 256.823038 125.645379 C 256.823038 127.055844 256.258852 132.133519 254.848386 140.314219 C 253.437921 148.777011 252.309548 155.829338 251.463269 162.035386 C 250.052804 170.498178 249.206525 178.678877 248.360245 185.731204 C 247.796059 192.783531 247.231873 197.29702 247.231873 199.553765 C 247.231873 201.810509 247.796059 203.220975 248.360245 204.067254 C 249.206525 204.913533 250.61699 205.195626 252.591642 205.195626 C 252.873735 205.195626 253.437921 205.195626 254.002107 205.195626 C 254.848386 205.195626 255.412572 205.195626 255.694665 205.195626 C 257.387224 205.195626 258.515596 205.477719 259.361875 206.041905 C 259.926062 206.888185 260.208155 207.734464 260.208155 209.144929 C 260.208155 211.683767 259.643968 214.222605 257.95141 216.479349 C 256.258852 218.736094 254.002107 220.710745 250.61699 222.96749 C 245.257222 226.352607 240.461639 229.173538 235.94815 230.866096 C 231.716754 232.840748 227.767451 233.687027 224.664427 233.687027 C 221.27931 233.687027 219.022565 232.558655 217.330007 230.019817 C 215.919542 227.763072 214.509076 222.403304 213.380704 214.504698 Z M 365.993058 126.773751 C 365.993058 129.030496 365.428872 134.390264 364.018407 143.417243 C 362.890034 149.905383 362.043755 154.983059 361.479569 158.932362 C 360.069104 168.805619 358.940731 177.550505 358.094452 185.449111 C 357.248173 193.347717 356.683987 197.861206 356.683987 199.553765 C 356.683987 201.810509 357.248173 203.220975 357.812359 204.067254 C 358.658638 204.913533 360.069104 205.195626 362.043755 205.195626 C 362.325848 205.195626 362.890034 205.195626 363.454221 205.195626 C 364.018407 205.195626 364.582593 205.195626 365.146779 205.195626 C 366.557244 205.195626 367.96771 205.477719 368.531896 206.041905 C 369.378175 206.888185 369.660268 207.734464 369.660268 209.144929 C 369.660268 211.683767 369.096082 213.940512 367.403524 216.197256 C 365.710965 218.736094 363.172128 220.710745 360.069104 222.96749 C 354.709335 226.352607 349.913753 228.891445 345.682357 230.866096 C 341.168868 232.558655 337.501658 233.404934 334.116541 233.404934 C 331.859796 233.404934 330.167238 233.122841 329.038865 232.276562 C 327.6284 231.430282 326.500028 229.737724 325.371655 227.198886 C 324.525376 224.942142 323.679097 222.403304 323.397004 219.582373 C 323.114911 216.761442 322.550725 215.350977 321.986538 215.350977 C 321.422352 215.350977 319.729794 216.479349 316.908863 218.171908 C 314.934211 219.864466 313.241653 220.992839 311.831188 221.839118 C 304.496768 226.352607 298.572813 229.455631 294.059324 231.430282 C 289.263741 233.122841 284.750252 233.96912 280.518856 233.96912 C 270.927692 233.96912 263.311178 230.584003 257.669317 223.813769 C 252.027455 216.761442 249.206525 207.452371 249.206525 195.886555 C 249.206525 187.987949 250.334897 180.089342 252.591642 172.190736 C 254.848386 164.29213 258.233503 156.95771 262.746992 149.905383 C 269.517226 139.467939 277.133739 131.569333 285.596532 125.645379 C 294.341417 120.003517 303.086302 117.182586 311.831188 117.182586 C 316.908863 117.182586 322.268631 118.310959 328.192586 120.567703 C 334.398634 123.106541 338.065844 124.234913 339.476309 124.234913 C 340.886774 124.234913 343.707705 123.106541 348.221194 120.567703 C 352.734684 118.310959 356.401894 117.182586 359.222824 117.182586 C 361.197476 117.182586 362.890034 118.028866 364.3005 119.721424 C 365.428872 121.696076 365.993058 123.95282 365.993058 126.773751 Z M 329.885145 152.444221 C 329.885145 147.366546 329.038865 143.135149 326.782121 140.032126 C 324.807469 137.211195 321.986538 135.518636 318.601421 135.518636 C 315.498398 135.518636 312.395374 136.647009 309.574443 138.339567 C 306.753512 140.032126 303.650488 142.853056 300.829558 146.520266 C 296.316068 152.444221 292.648858 160.060734 289.545835 168.523526 C 286.724904 177.268412 285.314438 185.449111 285.314438 192.783531 C 285.314438 198.143299 286.160718 202.092602 288.417462 205.195626 C 290.392114 208.29865 293.213045 209.709115 296.880255 209.709115 C 299.701185 209.709115 302.804209 208.862836 305.62514 206.888185 C 308.446071 204.913533 311.549095 202.092602 314.370025 198.425392 C 318.883515 192.219345 322.550725 184.884925 325.653748 176.422132 C 328.474679 167.677247 329.885145 159.778641 329.885145 152.444221 Z M 403.511437 128.466309 C 404.075624 131.005147 404.357717 132.697706 404.921903 133.826078 C 405.203996 134.672357 405.768182 135.236543 406.050275 135.236543 C 406.614461 135.236543 408.30702 134.108171 411.127951 132.133519 C 413.948881 129.876775 416.769812 128.184216 419.30865 126.773751 C 424.668418 123.95282 429.746094 121.978169 434.541676 120.567703 C 439.337258 119.157238 444.13284 118.310959 448.364237 118.310959 C 457.391215 118.310959 464.161449 120.849796 468.392845 125.927472 C 472.906334 131.28724 474.880986 138.903753 474.880986 149.341197 C 474.880986 156.95771 474.034707 166.548875 472.060055 177.832598 C 470.085404 189.116321 468.957031 196.168648 468.957031 199.553765 C 468.957031 201.810509 469.239124 203.220975 470.085404 204.067254 C 470.931683 204.913533 472.060055 205.195626 474.034707 205.195626 C 474.598893 205.195626 475.163079 205.195626 475.727265 205.195626 C 476.573544 205.195626 477.13773 205.195626 477.419824 205.195626 C 479.112382 205.195626 480.240754 205.477719 480.80494 206.041905 C 481.65122 206.888185 481.933313 207.734464 481.933313 209.144929 C 481.933313 211.683767 481.087033 214.222605 479.394475 216.761442 C 477.701917 219.018187 474.880986 221.274932 471.495869 223.531676 C 466.418194 226.916793 461.340518 229.455631 455.98075 231.148189 C 450.620981 233.122841 445.825399 233.96912 441.31191 233.96912 C 436.516327 233.96912 433.413304 233.404934 431.720745 231.994469 C 430.028187 230.584003 429.181907 228.045165 429.181907 224.377955 C 429.181907 222.121211 430.028187 215.63307 432.002838 205.195626 C 432.284931 203.785161 432.567024 202.656789 432.849117 201.528416 C 435.105862 189.398414 436.79842 179.807249 437.6447 173.319109 C 438.773072 166.830968 439.055165 162.035386 439.055165 158.368176 C 439.055165 153.572593 438.208886 150.187476 436.79842 147.930732 C 435.105862 145.673987 432.567024 144.545615 429.181907 144.545615 C 421.565394 144.545615 415.64144 148.494918 411.410044 156.675617 C 407.460741 164.856316 404.357717 178.96097 402.665158 198.707486 C 402.383065 200.400044 402.383065 202.374695 402.100972 205.195626 C 401.254693 215.63307 399.844227 222.121211 398.151669 224.660049 C 396.177017 226.6347 392.509807 228.327259 386.867946 230.30191 C 381.226084 232.276562 375.584223 233.122841 370.224454 233.122841 C 367.121431 233.122841 364.582593 232.558655 363.454221 231.430282 C 362.043755 230.584003 361.479569 228.609352 361.479569 226.352607 C 361.479569 223.531676 362.607941 216.197256 364.864686 204.63144 C 365.993058 198.143299 366.839338 193.347717 367.685617 189.398414 C 369.378175 180.371436 370.506548 172.754922 371.352827 165.984689 C 372.481199 159.496548 372.763292 154.418872 372.763292 151.315849 C 372.763292 147.366546 370.506548 145.109801 366.275151 144.827708 C 365.993058 144.827708 365.993058 144.827708 365.993058 144.827708 C 365.710965 144.545615 365.146779 144.545615 364.582593 144.545615 C 358.940731 142.853056 356.119801 140.878405 356.119801 138.339567 C 356.119801 136.647009 356.683987 135.236543 357.812359 134.108171 C 358.940731 132.697706 360.351197 131.28724 362.607941 129.876775 C 364.018407 129.030496 365.993058 128.184216 367.96771 127.055844 C 370.224454 126.209565 373.045385 125.081193 376.712595 123.670727 C 381.226084 121.978169 385.175387 120.849796 389.124691 119.721424 C 392.791901 118.875145 395.612831 118.310959 397.30539 118.310959 C 398.715855 118.310959 399.844227 118.875145 400.690507 119.721424 C 401.818879 120.567703 402.383065 121.696076 402.665158 123.106541 Z M 496.32006 237.354237 C 495.755873 238.764702 495.47378 239.893075 495.47378 240.457261 C 495.191687 241.30354 495.191687 242.149819 495.191687 242.714005 C 495.191687 248.073774 497.730525 252.30517 502.8082 255.408194 C 507.885876 258.229125 514.938203 259.921683 523.965181 259.921683 C 532.14588 259.921683 538.916114 258.511218 544.275883 255.690287 C 549.353558 253.151449 551.892396 249.484239 551.892396 245.252843 C 551.892396 242.996099 551.046116 241.021447 549.635651 239.893075 C 547.943093 238.764702 545.686348 238.200516 542.583324 238.200516 C 540.890766 238.200516 536.941463 238.482609 530.735415 239.328889 C 524.529367 239.893075 519.169599 240.457261 514.65611 240.457261 C 512.117272 240.457261 509.296341 240.175168 506.193317 239.610982 C 503.372387 239.046795 499.98727 238.482609 496.32006 237.354237 Z M 512.963551 164.010037 C 512.963551 170.780271 514.374017 176.140039 516.912854 179.525156 C 519.733785 182.910273 523.683088 184.602832 528.760763 184.602832 C 535.248904 184.602832 540.890766 181.499808 545.404255 175.011667 C 549.917744 168.805619 552.174489 160.907013 552.174489 151.597942 C 552.174489 145.391894 551.046116 140.314219 548.225186 136.929102 C 545.404255 133.261892 541.454952 131.569333 536.65937 131.569333 C 530.171229 131.569333 524.529367 134.672357 520.015878 140.878405 C 515.220296 146.802359 512.963551 154.700966 512.963551 164.010037 Z M 483.343778 231.994469 C 479.676568 230.30191 477.13773 227.763072 475.445172 224.942142 C 473.752614 222.121211 472.906334 218.736094 472.906334 214.786791 C 472.906334 209.427022 474.3168 204.913533 477.701917 200.96423 C 481.087033 197.29702 486.164709 193.62981 493.217036 190.526786 C 488.98564 187.423762 485.600523 183.192366 483.343778 178.114691 C 480.80494 173.037016 479.676568 167.395154 479.676568 161.189106 C 479.676568 147.930732 484.754243 137.493288 494.909594 129.312589 C 505.064945 121.131889 518.605413 117.182586 535.530997 117.182586 C 539.198207 117.182586 543.14751 117.464679 547.378906 117.746773 C 551.892396 118.310959 556.405885 118.875145 561.48356 119.721424 C 564.304491 118.310959 567.125422 116.336307 569.946353 114.079563 C 572.48519 111.822818 575.306121 109.001887 577.844959 105.898863 C 580.665889 108.155608 582.640541 110.412353 584.051006 112.387004 C 585.461472 114.361656 586.307751 116.336307 586.307751 118.028866 C 586.307751 120.003517 585.461472 121.978169 584.051006 124.234913 C 582.358448 126.491658 580.101703 128.748403 576.998679 131.005147 C 579.537517 134.672357 581.794262 138.339567 583.204727 142.006777 C 584.615193 145.673987 585.179379 149.905383 585.179379 154.136779 C 585.179379 167.677247 580.101703 178.396784 569.66426 186.577483 C 559.226816 195.040276 545.686348 198.989579 528.47867 198.989579 C 524.247274 198.989579 520.297971 198.707486 516.348668 198.143299 C 512.681458 197.579113 508.732155 196.732834 504.782852 195.322369 C 503.372387 197.014927 502.526107 198.707486 501.961921 200.117951 C 501.397735 201.528416 501.115642 202.656789 501.115642 203.785161 C 501.115642 206.606092 502.244014 208.862836 504.500759 210.555395 C 506.757503 211.96586 510.424713 212.812139 514.938203 212.812139 C 519.451692 212.812139 525.939833 212.247953 535.248904 211.683767 C 544.275883 210.837488 551.046116 210.555395 555.841699 210.555395 C 564.022398 210.555395 570.228446 212.530046 574.741935 216.761442 C 578.973331 220.710745 581.230076 226.6347 581.230076 233.96912 C 581.230076 246.381215 575.024028 256.254473 562.894026 263.870986 C 550.764023 271.769592 534.684718 275.436802 514.938203 275.436802 C 501.679828 275.436802 490.960291 273.462151 483.343778 268.948662 C 475.445172 264.435172 471.777962 258.229125 471.777962 250.612612 C 471.777962 247.509588 472.624241 244.406564 474.598893 241.021447 C 476.573544 237.918423 479.394475 234.815399 483.343778 231.994469 Z M 483.343778 231.994469 " stroke="#ffffff" stroke-width="16.299601" stroke-opacity="1" stroke-miterlimit="4"/><g fill="#005ae0" fill-opacity="1"><g transform="translate(10.57258, 14.333885)"><g><path d="M 0.78125 -0.96875 C 0.757812 -0.84375 0.742188 -0.734375 0.734375 -0.640625 C 0.722656 -0.546875 0.71875 -0.472656 0.71875 -0.421875 C 0.71875 -0.390625 0.71875 -0.363281 0.71875 -0.34375 C 0.726562 -0.320312 0.738281 -0.304688 0.75 -0.296875 C 0.757812 -0.285156 0.773438 -0.273438 0.796875 -0.265625 C 0.847656 -0.234375 0.875 -0.191406 0.875 -0.140625 C 0.875 -0.0859375 0.832031 -0.046875 0.75 -0.015625 C 0.675781 0.00390625 0.535156 0.015625 0.328125 0.015625 C 0.160156 0.015625 0.0507812 0.00390625 0 -0.015625 C -0.0625 -0.0351562 -0.09375 -0.0703125 -0.09375 -0.125 C -0.09375 -0.144531 -0.0859375 -0.164062 -0.078125 -0.1875 C -0.0664062 -0.207031 -0.0507812 -0.222656 -0.03125 -0.234375 C -0.0195312 -0.242188 0 -0.253906 0.03125 -0.265625 C 0.0703125 -0.285156 0.101562 -0.304688 0.125 -0.328125 C 0.132812 -0.335938 0.144531 -0.359375 0.15625 -0.390625 C 0.164062 -0.429688 0.175781 -0.484375 0.1875 -0.546875 C 0.238281 -0.796875 0.273438 -1.023438 0.296875 -1.234375 C 0.328125 -1.441406 0.34375 -1.617188 0.34375 -1.765625 C 0.34375 -1.816406 0.335938 -1.847656 0.328125 -1.859375 C 0.316406 -1.878906 0.300781 -1.894531 0.28125 -1.90625 C 0.28125 -1.914062 0.273438 -1.921875 0.265625 -1.921875 C 0.203125 -1.953125 0.171875 -1.988281 0.171875 -2.03125 C 0.171875 -2.09375 0.203125 -2.140625 0.265625 -2.171875 C 0.335938 -2.203125 0.453125 -2.21875 0.609375 -2.21875 C 0.617188 -2.21875 0.648438 -2.210938 0.703125 -2.203125 C 0.765625 -2.203125 0.828125 -2.203125 0.890625 -2.203125 C 0.941406 -2.203125 1.007812 -2.203125 1.09375 -2.203125 C 1.1875 -2.210938 1.253906 -2.21875 1.296875 -2.21875 C 1.523438 -2.21875 1.695312 -2.171875 1.8125 -2.078125 C 1.925781 -1.992188 1.984375 -1.863281 1.984375 -1.6875 C 1.984375 -1.539062 1.9375 -1.414062 1.84375 -1.3125 C 1.757812 -1.207031 1.644531 -1.132812 1.5 -1.09375 L 1.5 -1.078125 C 1.5625 -1.046875 1.613281 -1.003906 1.65625 -0.953125 C 1.707031 -0.898438 1.742188 -0.832031 1.765625 -0.75 C 1.773438 -0.695312 1.785156 -0.628906 1.796875 -0.546875 C 1.828125 -0.378906 1.878906 -0.296875 1.953125 -0.296875 C 1.960938 -0.296875 1.972656 -0.296875 1.984375 -0.296875 C 2.003906 -0.296875 2.015625 -0.296875 2.015625 -0.296875 C 2.046875 -0.296875 2.066406 -0.289062 2.078125 -0.28125 C 2.085938 -0.269531 2.09375 -0.25 2.09375 -0.21875 C 2.09375 -0.15625 2.050781 -0.0976562 1.96875 -0.046875 C 1.894531 -0.00390625 1.800781 0.015625 1.6875 0.015625 C 1.625 0.015625 1.566406 0.0078125 1.515625 0 C 1.460938 -0.0195312 1.421875 -0.046875 1.390625 -0.078125 C 1.328125 -0.128906 1.28125 -0.253906 1.25 -0.453125 C 1.238281 -0.484375 1.234375 -0.507812 1.234375 -0.53125 C 1.203125 -0.707031 1.160156 -0.828125 1.109375 -0.890625 C 1.054688 -0.953125 0.984375 -0.984375 0.890625 -0.984375 C 0.867188 -0.984375 0.847656 -0.976562 0.828125 -0.96875 C 0.816406 -0.96875 0.800781 -0.96875 0.78125 -0.96875 Z M 0.828125 -1.296875 C 0.859375 -1.285156 0.882812 -1.28125 0.90625 -1.28125 C 0.9375 -1.28125 0.960938 -1.28125 0.984375 -1.28125 C 1.140625 -1.28125 1.253906 -1.304688 1.328125 -1.359375 C 1.398438 -1.421875 1.4375 -1.507812 1.4375 -1.625 C 1.4375 -1.71875 1.410156 -1.789062 1.359375 -1.84375 C 1.304688 -1.90625 1.234375 -1.9375 1.140625 -1.9375 C 1.078125 -1.9375 1.023438 -1.929688 0.984375 -1.921875 C 0.941406 -1.921875 0.921875 -1.914062 0.921875 -1.90625 C 0.910156 -1.894531 0.898438 -1.875 0.890625 -1.84375 C 0.890625 -1.820312 0.882812 -1.785156 0.875 -1.734375 Z M 0.828125 -1.296875 "/></g></g></g><g fill="#005ae0" fill-opacity="1"><g transform="translate(12.449624, 14.333885)"><g><path d="M 1.078125 -0.234375 C 0.992188 -0.148438 0.894531 -0.0820312 0.78125 -0.03125 C 0.675781 0.0078125 0.570312 0.03125 0.46875 0.03125 C 0.34375 0.03125 0.25 0 0.1875 -0.0625 C 0.125 -0.132812 0.09375 -0.238281 0.09375 -0.375 C 0.09375 -0.46875 0.109375 -0.597656 0.140625 -0.765625 C 0.179688 -0.929688 0.203125 -1.050781 0.203125 -1.125 C 0.203125 -1.144531 0.195312 -1.160156 0.1875 -1.171875 C 0.175781 -1.179688 0.15625 -1.191406 0.125 -1.203125 C 0.125 -1.203125 0.117188 -1.207031 0.109375 -1.21875 C 0.0546875 -1.226562 0.03125 -1.253906 0.03125 -1.296875 C 0.03125 -1.328125 0.0390625 -1.351562 0.0625 -1.375 C 0.09375 -1.394531 0.140625 -1.421875 0.203125 -1.453125 C 0.304688 -1.492188 0.390625 -1.523438 0.453125 -1.546875 C 0.515625 -1.566406 0.5625 -1.578125 0.59375 -1.578125 C 0.644531 -1.578125 0.679688 -1.5625 0.703125 -1.53125 C 0.722656 -1.507812 0.734375 -1.472656 0.734375 -1.421875 C 0.734375 -1.335938 0.710938 -1.191406 0.671875 -0.984375 C 0.628906 -0.785156 0.609375 -0.628906 0.609375 -0.515625 C 0.609375 -0.453125 0.617188 -0.40625 0.640625 -0.375 C 0.660156 -0.34375 0.691406 -0.328125 0.734375 -0.328125 C 0.835938 -0.328125 0.914062 -0.378906 0.96875 -0.484375 C 1.03125 -0.597656 1.078125 -0.804688 1.109375 -1.109375 C 1.117188 -1.128906 1.125 -1.164062 1.125 -1.21875 C 1.132812 -1.332031 1.148438 -1.40625 1.171875 -1.4375 C 1.191406 -1.46875 1.242188 -1.492188 1.328125 -1.515625 C 1.410156 -1.546875 1.488281 -1.5625 1.5625 -1.5625 C 1.601562 -1.5625 1.632812 -1.550781 1.65625 -1.53125 C 1.675781 -1.519531 1.6875 -1.5 1.6875 -1.46875 C 1.6875 -1.445312 1.675781 -1.375 1.65625 -1.25 C 1.632812 -1.132812 1.617188 -1.035156 1.609375 -0.953125 C 1.585938 -0.835938 1.570312 -0.726562 1.5625 -0.625 C 1.550781 -0.53125 1.546875 -0.46875 1.546875 -0.4375 C 1.546875 -0.40625 1.550781 -0.382812 1.5625 -0.375 C 1.570312 -0.363281 1.59375 -0.359375 1.625 -0.359375 C 1.625 -0.359375 1.628906 -0.359375 1.640625 -0.359375 C 1.648438 -0.359375 1.660156 -0.359375 1.671875 -0.359375 C 1.691406 -0.359375 1.707031 -0.351562 1.71875 -0.34375 C 1.726562 -0.332031 1.734375 -0.316406 1.734375 -0.296875 C 1.734375 -0.265625 1.722656 -0.234375 1.703125 -0.203125 C 1.679688 -0.171875 1.644531 -0.140625 1.59375 -0.109375 C 1.519531 -0.0546875 1.453125 -0.0195312 1.390625 0 C 1.328125 0.0195312 1.273438 0.03125 1.234375 0.03125 C 1.191406 0.03125 1.160156 0.015625 1.140625 -0.015625 C 1.117188 -0.046875 1.097656 -0.117188 1.078125 -0.234375 Z M 1.078125 -0.234375 "/></g></g></g><g fill="#005ae0" fill-opacity="1"><g transform="translate(14.004883, 14.333885)"><g><path d="M 1.640625 -1.4375 C 1.640625 -1.414062 1.628906 -1.34375 1.609375 -1.21875 C 1.597656 -1.125 1.585938 -1.050781 1.578125 -1 C 1.554688 -0.863281 1.539062 -0.738281 1.53125 -0.625 C 1.519531 -0.519531 1.515625 -0.457031 1.515625 -0.4375 C 1.515625 -0.40625 1.519531 -0.382812 1.53125 -0.375 C 1.539062 -0.363281 1.554688 -0.359375 1.578125 -0.359375 C 1.585938 -0.359375 1.597656 -0.359375 1.609375 -0.359375 C 1.617188 -0.359375 1.625 -0.359375 1.625 -0.359375 C 1.644531 -0.359375 1.660156 -0.351562 1.671875 -0.34375 C 1.679688 -0.332031 1.6875 -0.316406 1.6875 -0.296875 C 1.6875 -0.265625 1.675781 -0.234375 1.65625 -0.203125 C 1.632812 -0.171875 1.601562 -0.140625 1.5625 -0.109375 C 1.488281 -0.0664062 1.421875 -0.03125 1.359375 0 C 1.296875 0.0195312 1.242188 0.03125 1.203125 0.03125 C 1.171875 0.03125 1.144531 0.0234375 1.125 0.015625 C 1.101562 0.00390625 1.085938 -0.015625 1.078125 -0.046875 C 1.066406 -0.078125 1.054688 -0.113281 1.046875 -0.15625 C 1.046875 -0.195312 1.039062 -0.21875 1.03125 -0.21875 C 1.019531 -0.21875 0.992188 -0.203125 0.953125 -0.171875 C 0.929688 -0.148438 0.910156 -0.132812 0.890625 -0.125 C 0.785156 -0.0625 0.703125 -0.0195312 0.640625 0 C 0.578125 0.03125 0.515625 0.046875 0.453125 0.046875 C 0.316406 0.046875 0.207031 0 0.125 -0.09375 C 0.0507812 -0.195312 0.015625 -0.328125 0.015625 -0.484375 C 0.015625 -0.597656 0.03125 -0.707031 0.0625 -0.8125 C 0.09375 -0.925781 0.140625 -1.03125 0.203125 -1.125 C 0.296875 -1.269531 0.398438 -1.378906 0.515625 -1.453125 C 0.640625 -1.535156 0.765625 -1.578125 0.890625 -1.578125 C 0.953125 -1.578125 1.023438 -1.5625 1.109375 -1.53125 C 1.203125 -1.5 1.253906 -1.484375 1.265625 -1.484375 C 1.285156 -1.484375 1.328125 -1.5 1.390625 -1.53125 C 1.453125 -1.5625 1.503906 -1.578125 1.546875 -1.578125 C 1.578125 -1.578125 1.597656 -1.5625 1.609375 -1.53125 C 1.628906 -1.507812 1.640625 -1.476562 1.640625 -1.4375 Z M 1.140625 -1.09375 C 1.140625 -1.164062 1.125 -1.222656 1.09375 -1.265625 C 1.0625 -1.304688 1.023438 -1.328125 0.984375 -1.328125 C 0.941406 -1.328125 0.898438 -1.3125 0.859375 -1.28125 C 0.816406 -1.257812 0.773438 -1.222656 0.734375 -1.171875 C 0.671875 -1.085938 0.617188 -0.984375 0.578125 -0.859375 C 0.535156 -0.742188 0.515625 -0.632812 0.515625 -0.53125 C 0.515625 -0.457031 0.53125 -0.398438 0.5625 -0.359375 C 0.59375 -0.316406 0.628906 -0.296875 0.671875 -0.296875 C 0.710938 -0.296875 0.753906 -0.304688 0.796875 -0.328125 C 0.835938 -0.359375 0.878906 -0.398438 0.921875 -0.453125 C 0.984375 -0.535156 1.035156 -0.632812 1.078125 -0.75 C 1.117188 -0.875 1.140625 -0.988281 1.140625 -1.09375 Z M 1.140625 -1.09375 "/></g></g></g><g fill="#005ae0" fill-opacity="1"><g transform="translate(15.519, 14.333885)"><g><path d="M 0.640625 -1.421875 C 0.648438 -1.390625 0.65625 -1.363281 0.65625 -1.34375 C 0.664062 -1.332031 0.671875 -1.328125 0.671875 -1.328125 C 0.679688 -1.328125 0.707031 -1.34375 0.75 -1.375 C 0.789062 -1.40625 0.828125 -1.429688 0.859375 -1.453125 C 0.929688 -1.484375 1 -1.507812 1.0625 -1.53125 C 1.132812 -1.550781 1.203125 -1.5625 1.265625 -1.5625 C 1.390625 -1.5625 1.484375 -1.523438 1.546875 -1.453125 C 1.609375 -1.378906 1.640625 -1.273438 1.640625 -1.140625 C 1.640625 -1.023438 1.625 -0.890625 1.59375 -0.734375 C 1.5625 -0.578125 1.546875 -0.476562 1.546875 -0.4375 C 1.546875 -0.40625 1.550781 -0.382812 1.5625 -0.375 C 1.570312 -0.363281 1.59375 -0.359375 1.625 -0.359375 C 1.625 -0.359375 1.628906 -0.359375 1.640625 -0.359375 C 1.648438 -0.359375 1.660156 -0.359375 1.671875 -0.359375 C 1.691406 -0.359375 1.707031 -0.351562 1.71875 -0.34375 C 1.726562 -0.332031 1.734375 -0.316406 1.734375 -0.296875 C 1.734375 -0.265625 1.71875 -0.234375 1.6875 -0.203125 C 1.664062 -0.171875 1.628906 -0.140625 1.578125 -0.109375 C 1.515625 -0.0546875 1.445312 -0.0195312 1.375 0 C 1.300781 0.03125 1.234375 0.046875 1.171875 0.046875 C 1.097656 0.046875 1.050781 0.0351562 1.03125 0.015625 C 1.007812 -0.00390625 1 -0.0390625 1 -0.09375 C 1 -0.125 1.015625 -0.210938 1.046875 -0.359375 C 1.046875 -0.378906 1.046875 -0.394531 1.046875 -0.40625 C 1.078125 -0.582031 1.097656 -0.710938 1.109375 -0.796875 C 1.128906 -0.890625 1.140625 -0.957031 1.140625 -1 C 1.140625 -1.070312 1.128906 -1.125 1.109375 -1.15625 C 1.085938 -1.1875 1.050781 -1.203125 1 -1.203125 C 0.894531 -1.203125 0.8125 -1.144531 0.75 -1.03125 C 0.695312 -0.914062 0.65625 -0.722656 0.625 -0.453125 C 0.625 -0.429688 0.625 -0.398438 0.625 -0.359375 C 0.613281 -0.210938 0.59375 -0.125 0.5625 -0.09375 C 0.539062 -0.0625 0.488281 -0.03125 0.40625 0 C 0.332031 0.0195312 0.257812 0.03125 0.1875 0.03125 C 0.132812 0.03125 0.0976562 0.0195312 0.078125 0 C 0.0664062 -0.0078125 0.0625 -0.03125 0.0625 -0.0625 C 0.0625 -0.101562 0.078125 -0.203125 0.109375 -0.359375 C 0.117188 -0.453125 0.128906 -0.523438 0.140625 -0.578125 C 0.160156 -0.703125 0.175781 -0.8125 0.1875 -0.90625 C 0.207031 -1 0.21875 -1.066406 0.21875 -1.109375 C 0.21875 -1.160156 0.1875 -1.191406 0.125 -1.203125 C 0.113281 -1.203125 0.109375 -1.203125 0.109375 -1.203125 C 0.0234375 -1.222656 -0.015625 -1.25 -0.015625 -1.28125 C -0.015625 -1.300781 -0.0078125 -1.320312 0 -1.34375 C 0.0195312 -1.363281 0.046875 -1.382812 0.078125 -1.40625 C 0.0976562 -1.414062 0.117188 -1.425781 0.140625 -1.4375 C 0.171875 -1.445312 0.210938 -1.460938 0.265625 -1.484375 C 0.328125 -1.503906 0.382812 -1.519531 0.4375 -1.53125 C 0.488281 -1.550781 0.53125 -1.5625 0.5625 -1.5625 C 0.570312 -1.5625 0.582031 -1.554688 0.59375 -1.546875 C 0.613281 -1.535156 0.625 -1.519531 0.625 -1.5 Z M 0.640625 -1.421875 "/></g></g></g><g fill="#005ae0" fill-opacity="1"><g transform="translate(17.074259, 14.333885)"><g><path d="M 0.375 0.09375 C 0.363281 0.101562 0.359375 0.113281 0.359375 0.125 C 0.359375 0.144531 0.359375 0.15625 0.359375 0.15625 C 0.359375 0.238281 0.390625 0.300781 0.453125 0.34375 C 0.523438 0.382812 0.625 0.40625 0.75 0.40625 C 0.863281 0.40625 0.957031 0.382812 1.03125 0.34375 C 1.101562 0.300781 1.140625 0.253906 1.140625 0.203125 C 1.140625 0.171875 1.128906 0.144531 1.109375 0.125 C 1.085938 0.101562 1.054688 0.09375 1.015625 0.09375 C 0.992188 0.09375 0.9375 0.0976562 0.84375 0.109375 C 0.757812 0.117188 0.6875 0.125 0.625 0.125 C 0.59375 0.125 0.554688 0.117188 0.515625 0.109375 C 0.472656 0.109375 0.425781 0.101562 0.375 0.09375 Z M 0.609375 -0.921875 C 0.609375 -0.828125 0.625 -0.753906 0.65625 -0.703125 C 0.695312 -0.660156 0.753906 -0.640625 0.828125 -0.640625 C 0.910156 -0.640625 0.984375 -0.679688 1.046875 -0.765625 C 1.117188 -0.859375 1.15625 -0.96875 1.15625 -1.09375 C 1.15625 -1.1875 1.132812 -1.253906 1.09375 -1.296875 C 1.050781 -1.347656 1 -1.375 0.9375 -1.375 C 0.84375 -1.375 0.765625 -1.332031 0.703125 -1.25 C 0.640625 -1.164062 0.609375 -1.054688 0.609375 -0.921875 Z M 0.1875 0.015625 C 0.144531 -0.015625 0.109375 -0.046875 0.078125 -0.078125 C 0.0546875 -0.117188 0.046875 -0.171875 0.046875 -0.234375 C 0.046875 -0.296875 0.0664062 -0.351562 0.109375 -0.40625 C 0.160156 -0.46875 0.234375 -0.519531 0.328125 -0.5625 C 0.265625 -0.601562 0.21875 -0.660156 0.1875 -0.734375 C 0.15625 -0.804688 0.140625 -0.882812 0.140625 -0.96875 C 0.140625 -1.15625 0.207031 -1.300781 0.34375 -1.40625 C 0.488281 -1.519531 0.679688 -1.578125 0.921875 -1.578125 C 0.960938 -1.578125 1.015625 -1.570312 1.078125 -1.5625 C 1.140625 -1.5625 1.207031 -1.554688 1.28125 -1.546875 C 1.3125 -1.566406 1.347656 -1.59375 1.390625 -1.625 C 1.429688 -1.65625 1.46875 -1.691406 1.5 -1.734375 C 1.539062 -1.703125 1.570312 -1.671875 1.59375 -1.640625 C 1.613281 -1.617188 1.625 -1.59375 1.625 -1.5625 C 1.625 -1.539062 1.613281 -1.515625 1.59375 -1.484375 C 1.570312 -1.453125 1.535156 -1.421875 1.484375 -1.390625 C 1.523438 -1.335938 1.554688 -1.285156 1.578125 -1.234375 C 1.597656 -1.179688 1.609375 -1.125 1.609375 -1.0625 C 1.609375 -0.875 1.535156 -0.722656 1.390625 -0.609375 C 1.242188 -0.492188 1.050781 -0.4375 0.8125 -0.4375 C 0.757812 -0.4375 0.707031 -0.441406 0.65625 -0.453125 C 0.601562 -0.460938 0.546875 -0.476562 0.484375 -0.5 C 0.472656 -0.46875 0.460938 -0.441406 0.453125 -0.421875 C 0.441406 -0.410156 0.4375 -0.394531 0.4375 -0.375 C 0.4375 -0.332031 0.453125 -0.300781 0.484375 -0.28125 C 0.515625 -0.257812 0.5625 -0.25 0.625 -0.25 C 0.6875 -0.25 0.78125 -0.253906 0.90625 -0.265625 C 1.03125 -0.273438 1.128906 -0.28125 1.203125 -0.28125 C 1.316406 -0.28125 1.398438 -0.25 1.453125 -0.1875 C 1.515625 -0.132812 1.546875 -0.0546875 1.546875 0.046875 C 1.546875 0.210938 1.460938 0.347656 1.296875 0.453125 C 1.128906 0.566406 0.90625 0.625 0.625 0.625 C 0.445312 0.625 0.300781 0.59375 0.1875 0.53125 C 0.0820312 0.46875 0.03125 0.378906 0.03125 0.265625 C 0.03125 0.222656 0.0390625 0.179688 0.0625 0.140625 C 0.09375 0.0976562 0.132812 0.0546875 0.1875 0.015625 Z M 0.1875 0.015625 "/></g></g></g><g clip-path="url(#282c68095a)"><path stroke-linecap="butt" transform="matrix(0.0224631, 0, 0, 0.0224631, 12.259898, 13.674057)" fill="none" stroke-linejoin="miter" d="M 129.112109 73.80877 L 99.897536 127.716614 C 97.462988 132.06402 95.724026 135.020257 94.506752 136.237531 C 93.289478 137.454805 92.072204 138.15039 90.85493 138.15039 C 88.246486 138.15039 86.159731 134.672464 84.594664 127.89051 C 84.420768 127.021029 84.246872 126.325443 84.246872 125.803755 L 71.378548 70.156948 C 68.422311 85.807613 66.16166 98.675937 64.596593 108.935816 C 62.857631 119.0218 61.988149 124.934273 61.988149 126.673236 C 61.988149 127.89051 62.162045 128.759991 62.335942 129.28168 C 62.509838 129.977265 63.031527 130.498954 63.379319 130.846746 C 63.727112 131.020643 64.422697 131.542332 65.118282 132.06402 C 67.378934 133.281294 68.596207 134.846361 68.596207 136.75922 C 68.596207 139.193767 67.378934 140.93273 64.77049 141.976108 C 62.335942 143.019485 58.162431 143.541174 52.076062 143.541174 C 47.380863 143.541174 43.902937 143.019485 41.468389 141.976108 C 39.033842 141.106626 37.816568 139.715456 37.816568 137.802597 C 37.816568 136.933116 37.990464 136.063635 38.512153 135.194153 C 38.859945 134.324672 39.55553 133.802983 40.251115 133.281294 C 40.772804 133.107398 41.294493 132.759605 42.163974 132.411813 C 45.120211 130.846746 47.206966 128.586095 48.250344 125.455962 C 48.772033 124.064792 49.467618 121.282452 50.337099 117.282837 C 51.20658 113.109327 52.597751 106.153476 54.336713 96.415285 C 56.249572 85.633716 57.640742 77.98228 58.162431 73.80877 C 58.858016 69.461363 59.031913 66.33123 59.031913 64.070579 C 59.031913 62.331616 58.858016 60.940446 58.336328 59.897068 C 57.988535 58.853691 57.119054 58.158106 56.249572 57.636417 C 55.90178 57.46252 55.553987 57.114728 54.858402 56.766935 C 52.597751 55.549662 51.380477 54.158491 51.380477 52.419529 C 51.380477 49.811085 53.467232 47.724329 57.814639 46.333159 C 62.335942 44.941989 68.596207 44.246404 76.769332 44.246404 C 83.203494 44.246404 87.377005 48.246018 89.115967 56.419143 C 89.289864 56.940832 89.46376 57.46252 89.46376 57.810313 L 97.810781 93.806841 C 98.158573 95.545804 98.680262 96.936974 99.375847 98.154248 C 99.897536 99.371522 100.419225 99.89321 100.767017 99.89321 C 101.11481 99.89321 101.984291 99.023729 103.201565 97.11087 C 104.418839 95.371907 105.810009 93.111256 107.201179 90.502812 L 124.590806 58.158106 C 126.677562 53.984595 128.416524 51.202255 129.633798 49.637188 C 130.851072 47.898226 132.068346 46.854848 133.28562 46.159263 C 134.328998 45.637574 135.546271 45.289782 137.45913 45.115885 C 139.198093 44.941989 141.458745 44.768093 144.241085 44.768093 C 150.327454 44.768093 154.848757 45.289782 157.804994 46.333159 C 160.761231 47.376537 162.152401 48.941603 162.152401 51.028359 C 162.152401 52.767321 161.109023 54.332388 159.022268 55.549662 C 158.848372 55.723558 158.674475 55.897454 158.500579 55.897454 C 158.500579 55.897454 158.326683 56.07135 158.152787 56.245247 C 156.239928 57.288624 154.674861 59.027587 153.80538 61.288238 C 153.283691 62.679409 152.762002 64.418371 152.240313 66.679023 C 151.892521 68.765778 151.196936 72.4176 150.675247 77.286695 C 149.631869 85.807613 148.936284 93.632945 148.414595 100.414899 C 147.892907 107.37075 147.545114 113.109327 147.545114 117.978423 C 147.545114 122.499726 147.71901 125.455962 147.892907 126.847132 C 148.066803 128.238302 148.588492 129.28168 149.110181 129.977265 C 149.457973 130.325058 150.153558 130.67285 151.196936 131.368435 C 153.631484 132.759605 154.674861 134.498568 154.674861 136.411427 C 154.674861 139.193767 153.109795 141.106626 149.805766 142.3239 C 146.501736 143.367278 139.893678 143.888967 130.155487 143.888967 C 123.547429 143.888967 119.026126 143.541174 116.939371 142.671693 C 114.678719 141.802212 113.461445 140.411041 113.461445 138.15039 C 113.461445 135.715842 114.852615 133.802983 117.461059 132.411813 C 119.895607 131.020643 121.286777 130.325058 121.460674 130.325058 C 123.547429 128.064406 125.634184 114.500497 127.720939 89.63333 C 128.416524 82.851376 128.764317 77.634488 129.112109 73.80877 Z M 230.145842 78.851762 C 230.145842 80.069036 229.79805 83.546961 228.928569 88.937745 C 228.232983 92.93736 227.711295 96.241389 227.363502 98.675937 C 226.494021 104.58841 225.798436 109.979194 225.276747 114.84829 C 224.755058 119.717385 224.407265 122.673622 224.407265 123.543103 C 224.407265 124.934273 224.581162 125.977651 225.102851 126.49934 C 225.624539 126.847132 226.494021 127.194925 227.711295 127.194925 C 227.885191 127.194925 228.232983 127.194925 228.580776 127.021029 C 228.928569 127.021029 229.276361 127.021029 229.450257 127.021029 C 230.493635 127.021029 231.363116 127.194925 231.710909 127.716614 C 232.232598 128.064406 232.406494 128.759991 232.406494 129.629473 C 232.406494 131.020643 232.058701 132.585709 231.015324 133.976879 C 229.971946 135.36805 228.40688 136.75922 226.494021 137.976494 C 223.189992 140.063249 220.233755 141.802212 217.625311 142.845589 C 214.842971 143.888967 212.582319 144.584552 210.495564 144.584552 C 209.104394 144.584552 208.061016 144.236759 207.365431 143.71507 C 206.49595 143.193382 205.800365 142.150004 205.10478 140.584938 C 204.583091 139.193767 204.061402 137.628701 203.887506 135.889738 C 203.539713 134.324672 203.365817 133.455191 203.018024 133.455191 C 202.496335 133.455191 201.626854 133.976879 199.887891 135.194153 C 198.670618 136.063635 197.62724 136.75922 196.757759 137.454805 C 192.236456 140.237145 188.584634 142.150004 185.628397 143.193382 C 182.846057 144.410656 180.063717 144.932344 177.455273 144.932344 C 171.542799 144.932344 166.8476 142.845589 163.369675 138.498182 C 159.891749 134.150776 158.152787 128.412199 158.152787 121.282452 C 158.152787 116.413356 158.848372 111.544261 160.239542 106.675165 C 161.630712 101.979966 163.717467 97.284766 166.499808 92.93736 C 170.673318 86.677094 175.368517 81.634102 180.585405 78.156177 C 185.97619 74.504355 191.366974 72.765392 196.757759 72.765392 C 199.713995 72.765392 203.191921 73.460977 206.843742 75.026044 C 210.66946 76.417214 212.930112 77.112799 213.625697 77.112799 C 214.495178 77.112799 216.408037 76.417214 219.190377 75.026044 C 221.798821 73.460977 224.233369 72.765392 225.972332 72.765392 C 227.189606 72.765392 228.232983 73.287081 228.928569 74.504355 C 229.79805 75.547733 230.145842 76.938903 230.145842 78.851762 Z M 207.88712 94.676322 C 207.88712 91.372293 207.365431 88.763849 205.974261 87.024886 C 204.756987 85.112027 203.018024 84.242546 200.931269 84.242546 C 199.01841 84.242546 197.105551 84.764235 195.366588 85.807613 C 193.453729 87.024886 191.714767 88.763849 189.975804 91.024501 C 187.193464 94.676322 184.932812 99.197625 183.019953 104.58841 C 181.280991 109.979194 180.411509 114.84829 180.411509 119.369593 C 180.411509 122.673622 180.933198 125.282066 182.324368 127.021029 C 183.541642 128.933888 185.280605 129.803369 187.541256 129.803369 C 189.280219 129.803369 191.193078 129.28168 192.932041 128.064406 C 194.671003 127.021029 196.583862 125.282066 198.322825 122.847518 C 201.105165 119.195696 203.365817 114.674393 205.278676 109.283609 C 207.017638 104.066721 207.88712 99.197625 207.88712 94.676322 Z M 266.316267 61.636031 L 263.36003 79.895139 C 263.36003 80.069036 263.36003 80.242932 263.36003 80.416828 C 263.36003 80.764621 263.36003 80.938517 263.36003 81.460206 C 263.36003 81.807998 263.36003 81.981895 263.533926 82.155791 C 263.707823 82.329687 263.881719 82.503583 264.055615 82.503583 C 264.229511 82.503583 264.403408 82.329687 264.7512 82.155791 C 265.098993 81.981895 265.446785 81.807998 265.794578 81.634102 L 270.663673 79.025658 C 274.141599 77.112799 277.271732 75.721629 280.054072 74.852148 C 282.836412 73.982666 285.444856 73.634874 288.227197 73.634874 C 293.791877 73.634874 297.791491 75.19994 300.573832 78.330073 C 303.182276 81.460206 304.573446 86.155405 304.573446 92.589567 C 304.573446 97.458663 303.877861 103.19724 302.660587 110.15309 C 301.443313 117.108941 300.747728 121.630244 300.747728 123.543103 C 300.747728 124.934273 301.095521 125.977651 301.443313 126.49934 C 301.965002 126.847132 302.834483 127.194925 304.051757 127.194925 C 304.225653 127.194925 304.573446 127.194925 305.095135 127.021029 C 305.442927 127.021029 305.79072 127.021029 305.964616 127.021029 C 307.007994 127.021029 307.703579 127.194925 308.225268 127.716614 C 308.57306 128.064406 308.920853 128.759991 308.920853 129.629473 C 308.920853 131.194539 308.399164 132.759605 307.18189 134.150776 C 306.138512 135.715842 304.573446 137.107012 302.486691 138.498182 C 299.530454 140.411041 296.400321 141.976108 292.922396 143.193382 C 289.618367 144.236759 286.488234 144.932344 283.705894 144.932344 C 280.923553 144.932344 279.010694 144.410656 277.967317 143.541174 C 276.923939 142.845589 276.40225 141.106626 276.40225 138.845975 C 276.40225 137.454805 276.923939 133.455191 278.141213 127.021029 C 278.315109 126.151547 278.489006 125.455962 278.489006 124.934273 C 280.054072 117.282837 281.09745 111.544261 281.619138 107.544646 C 282.140827 103.545032 282.48862 100.414899 282.48862 98.328144 C 282.48862 95.198011 281.966931 93.111256 281.09745 91.720086 C 280.054072 90.328916 278.489006 89.63333 276.40225 89.63333 C 271.533155 89.63333 267.881333 92.241775 265.272889 97.284766 C 262.838341 102.501654 260.925482 111.196468 259.882105 123.543103 C 259.708208 124.760377 259.534312 126.49934 259.534312 128.586095 C 259.012623 134.150776 258.317038 137.628701 257.273661 139.019871 C 256.230283 140.237145 253.969631 141.280523 250.31781 142.497797 C 246.665988 143.71507 243.361959 144.236759 240.231826 144.236759 C 238.145071 144.236759 236.753901 143.888967 236.058316 143.193382 C 235.188834 142.497797 234.841042 141.280523 234.841042 139.715456 C 234.841042 137.802597 235.362731 133.629087 236.580004 127.194925 C 237.971175 120.760763 238.840656 115.717771 239.362345 112.065949 C 241.101307 101.979966 242.492478 92.93736 243.535855 85.112027 C 244.405337 77.112799 244.927025 71.722015 244.927025 68.417986 C 244.927025 65.635645 244.753129 63.896682 244.23144 63.027201 C 243.709751 61.983824 242.666374 61.462135 241.101307 60.940446 L 240.753515 60.76655 C 237.101693 59.549276 235.362731 58.158106 235.362731 56.419143 C 235.362731 55.201869 235.710523 54.158491 236.580004 53.115114 C 237.449486 52.071736 238.840656 51.202255 240.405722 50.50667 C 244.579233 48.419914 248.92664 46.680952 253.447943 45.463678 C 257.795349 44.246404 261.447171 43.550819 264.229511 43.550819 C 265.272889 43.550819 266.316267 44.072508 267.011852 45.115885 C 267.707437 46.159263 268.229126 47.376537 268.229126 48.767707 C 268.229126 50.158877 267.707437 53.462906 266.664059 59.027587 C 266.490163 60.244861 266.316267 61.114342 266.316267 61.636031 Z M 381.957286 78.851762 C 381.957286 80.069036 381.609494 83.546961 380.740012 88.937745 C 380.044427 92.93736 379.522738 96.241389 379.174946 98.675937 C 378.305465 104.58841 377.609879 109.979194 377.088191 114.84829 C 376.566502 119.717385 376.218709 122.673622 376.218709 123.543103 C 376.218709 124.934273 376.392606 125.977651 376.914294 126.49934 C 377.435983 126.847132 378.131568 127.194925 379.522738 127.194925 C 379.696635 127.194925 380.044427 127.194925 380.39222 127.021029 C 380.740012 127.021029 381.087805 127.021029 381.261701 127.021029 C 382.305079 127.021029 383.000664 127.194925 383.522353 127.716614 C 384.044041 128.064406 384.217938 128.759991 384.217938 129.629473 C 384.217938 131.020643 383.696249 132.585709 382.826768 133.976879 C 381.78339 135.36805 380.218324 136.75922 378.305465 137.976494 C 375.001435 140.063249 372.045199 141.802212 369.436755 142.845589 C 366.654414 143.888967 364.393763 144.584552 362.307008 144.584552 C 360.915838 144.584552 359.87246 144.236759 359.176875 143.71507 C 358.307393 143.193382 357.611808 142.150004 356.916223 140.584938 C 356.394535 139.193767 355.872846 137.628701 355.698949 135.889738 C 355.351157 134.324672 355.177261 133.455191 354.829468 133.455191 C 354.307779 133.455191 353.438298 133.976879 351.699335 135.194153 C 350.482061 136.063635 349.438684 136.75922 348.569202 137.454805 C 344.047899 140.237145 340.396078 142.150004 337.439841 143.193382 C 334.657501 144.410656 331.87516 144.932344 329.266716 144.932344 C 323.354243 144.932344 318.659044 142.845589 315.181119 138.498182 C 311.703193 134.150776 309.96423 128.412199 309.96423 121.282452 C 309.96423 116.413356 310.659815 111.544261 312.050986 106.675165 C 313.442156 101.979966 315.528911 97.284766 318.311251 92.93736 C 322.310866 86.677094 327.006065 81.634102 332.396849 78.156177 C 337.787634 74.504355 343.178418 72.765392 348.569202 72.765392 C 351.525439 72.765392 355.003364 73.460977 358.655186 75.026044 C 362.480904 76.417214 364.741555 77.112799 365.437141 77.112799 C 366.306622 77.112799 368.219481 76.417214 371.001821 75.026044 C 373.610265 73.460977 375.870917 72.765392 377.783776 72.765392 C 379.00105 72.765392 380.044427 73.287081 380.740012 74.504355 C 381.609494 75.547733 381.957286 76.938903 381.957286 78.851762 Z M 359.698564 94.676322 C 359.698564 91.372293 359.176875 88.763849 357.785705 87.024886 C 356.568431 85.112027 354.829468 84.242546 352.742713 84.242546 C 350.829854 84.242546 348.916995 84.764235 347.178032 85.807613 C 345.265173 87.024886 343.526211 88.763849 341.787248 91.024501 C 339.004908 94.676322 336.744256 99.197625 334.831397 104.58841 C 333.092434 109.979194 332.222953 114.84829 332.222953 119.369593 C 332.222953 122.673622 332.744642 125.282066 333.961916 127.021029 C 335.353086 128.933888 337.092049 129.803369 339.3527 129.803369 C 341.091663 129.803369 343.004522 129.28168 344.743484 128.064406 C 346.482447 127.021029 348.395306 125.282066 350.134269 122.847518 C 352.916609 119.195696 355.177261 114.674393 357.09012 109.283609 C 358.829082 104.066721 359.698564 99.197625 359.698564 94.676322 Z M 409.432897 134.150776 C 412.041341 134.150776 413.9542 133.629087 415.34537 132.411813 C 416.73654 131.194539 417.432125 129.455576 417.432125 127.368821 C 417.432125 124.934273 414.823681 121.978037 409.432897 118.326215 C 408.215623 117.456734 407.172245 116.761149 406.47666 116.23946 C 399.868602 111.718157 395.521195 107.892439 393.43444 104.762306 C 391.173789 101.632173 390.130411 97.980351 390.130411 93.806841 C 390.130411 87.546575 392.564959 82.503583 397.434054 78.677865 C 402.129254 74.678251 408.563416 72.765392 416.214851 72.765392 C 419.171088 72.765392 422.127325 73.113185 425.083561 73.80877 C 428.039798 74.330459 430.996034 75.373836 433.952271 76.59111 C 435.86513 77.460592 437.2563 78.330073 437.951885 79.373451 C 438.473574 80.416828 438.821367 82.155791 438.821367 84.416442 C 438.821367 87.894368 438.299678 90.502812 437.2563 92.241775 C 436.212923 94.154633 434.821752 95.024115 432.734997 95.024115 C 430.648242 95.024115 428.909279 93.632945 427.344213 90.850604 C 426.99642 89.981123 426.474731 89.285538 426.300835 88.763849 C 425.257457 87.024886 424.040184 85.633716 422.649013 84.764235 C 421.257843 83.894754 419.692777 83.546961 418.12771 83.546961 C 416.040955 83.546961 414.475889 84.06865 413.258615 85.112027 C 412.041341 86.155405 411.519652 87.720471 411.519652 89.459434 C 411.519652 92.241775 414.128096 95.371907 419.518881 98.849833 C 420.388362 99.371522 421.257843 99.719314 421.605636 100.067107 C 428.213694 104.240617 432.387205 107.892439 434.47396 111.022572 C 436.560715 114.152705 437.604093 118.152319 437.604093 122.673622 C 437.604093 129.455576 434.995649 134.672464 429.778761 138.845975 C 424.561872 142.845589 417.606022 144.932344 408.911208 144.932344 C 401.955357 144.932344 395.868988 143.541174 390.825996 140.93273 C 385.609108 138.324286 383.17456 135.541946 383.17456 132.411813 C 383.17456 128.586095 383.870145 125.282066 385.261315 122.847518 C 386.826382 120.239074 388.739241 119.0218 390.825996 119.0218 C 392.738855 119.0218 394.303921 120.41297 395.695092 123.369207 C 396.390677 124.760377 396.912365 125.977651 397.434054 126.673236 C 398.825224 129.107784 400.564187 130.846746 402.650942 132.237917 C 404.911594 133.455191 407.172245 134.150776 409.432897 134.150776 Z M 477.774131 53.636803 C 477.774131 56.940832 476.382961 59.723172 473.426724 61.983824 C 470.470488 64.244475 466.818666 65.461749 462.471259 65.461749 C 458.819438 65.461749 456.037097 64.592268 453.950342 62.853305 C 451.863587 61.288238 450.820209 59.027587 450.820209 56.245247 C 450.820209 52.593425 452.211379 49.637188 455.341512 47.376537 C 458.297749 44.941989 462.123467 43.898611 466.64477 43.898611 C 470.122695 43.898611 472.731139 44.768093 474.817894 46.507055 C 476.730753 48.419914 477.774131 50.680566 477.774131 53.636803 Z M 443.516566 138.845975 C 443.516566 137.454805 444.212151 133.281294 445.603321 126.151547 C 446.298906 122.499726 446.820595 119.717385 447.168388 117.63063 C 448.037869 112.761534 448.733454 108.588024 449.255143 104.936202 C 449.776832 101.284381 449.950728 98.50204 449.950728 96.589181 C 449.950728 94.32853 449.602935 92.763463 449.255143 91.893982 C 448.733454 91.024501 447.51618 90.502812 445.777217 89.981123 C 445.603321 89.981123 445.603321 89.807227 445.429425 89.807227 C 441.777603 88.763849 439.864744 87.198783 439.864744 85.285924 C 439.864744 84.06865 440.734226 82.67748 442.299292 81.460206 C 443.690462 80.242932 446.12501 79.025658 449.255143 77.808384 C 453.254757 76.243318 457.080475 75.026044 460.906193 74.156562 C 464.558015 73.287081 467.688147 72.765392 469.948799 72.765392 C 471.339969 72.765392 472.383347 73.287081 473.252828 74.156562 C 474.122309 75.026044 474.470102 76.243318 474.470102 77.808384 C 474.470102 78.677865 474.122309 81.460206 473.252828 86.155405 C 472.383347 90.850604 471.861658 95.024115 471.339969 98.675937 C 470.296591 105.110099 469.601006 110.674779 469.079318 115.022186 C 468.383732 119.543489 468.209836 122.325829 468.209836 123.543103 C 468.209836 124.934273 468.383732 125.977651 468.905421 126.325443 C 469.253214 126.847132 470.296591 127.021029 471.513865 127.021029 C 471.687762 127.021029 472.035554 127.021029 472.383347 127.021029 C 472.731139 126.847132 473.078932 126.847132 473.252828 126.847132 C 474.817894 126.847132 476.035168 127.194925 476.730753 127.716614 C 477.600235 128.238302 477.948027 129.107784 477.948027 130.325058 C 477.948027 131.716228 477.426339 133.107398 476.209065 134.324672 C 475.165687 135.715842 473.600621 137.107012 471.339969 138.498182 C 468.03594 140.411041 464.558015 141.976108 460.732297 143.193382 C 456.906579 144.236759 453.428653 144.932344 450.472417 144.932344 C 448.037869 144.932344 446.298906 144.410656 445.255529 143.367278 C 444.038255 142.497797 443.516566 140.93273 443.516566 138.845975 Z M 501.250128 134.150776 C 503.684675 134.150776 505.597534 133.629087 506.988704 132.411813 C 508.379875 131.194539 509.07546 129.455576 509.07546 127.368821 C 509.07546 124.934273 506.467016 121.978037 501.250128 118.326215 C 500.032854 117.456734 498.989476 116.761149 498.293891 116.23946 C 491.685833 111.718157 487.338426 107.892439 485.077774 104.762306 C 482.991019 101.632173 481.947642 97.980351 481.947642 93.806841 C 481.947642 87.546575 484.382189 82.503583 489.077389 78.677865 C 493.946484 74.678251 500.20675 72.765392 508.032082 72.765392 C 510.988319 72.765392 513.944555 73.113185 516.900792 73.80877 C 519.857028 74.330459 522.639369 75.373836 525.595605 76.59111 C 527.682361 77.460592 529.073531 78.330073 529.59522 79.373451 C 530.290805 80.416828 530.464701 82.155791 530.464701 84.416442 C 530.464701 87.894368 530.116908 90.502812 529.073531 92.241775 C 528.030153 94.154633 526.465087 95.024115 524.552228 95.024115 C 522.465472 95.024115 520.72651 93.632945 519.161443 90.850604 C 518.639755 89.981123 518.291962 89.285538 517.944169 88.763849 C 516.900792 87.024886 515.683518 85.633716 514.292348 84.764235 C 512.901178 83.894754 511.336111 83.546961 509.771045 83.546961 C 507.858186 83.546961 506.293119 84.06865 505.075845 85.112027 C 503.858572 86.155405 503.336883 87.720471 503.336883 89.459434 C 503.336883 92.241775 505.945327 95.371907 511.162215 98.849833 C 512.205593 99.371522 512.901178 99.719314 513.422866 100.067107 C 519.857028 104.240617 524.204435 107.892439 526.29119 111.022572 C 528.377946 114.152705 529.421323 118.152319 529.421323 122.673622 C 529.421323 129.455576 526.812879 134.672464 521.595991 138.845975 C 516.379103 142.845589 509.423252 144.932344 500.728439 144.932344 C 493.772588 144.932344 487.686218 143.541174 482.643227 140.93273 C 477.426339 138.324286 474.817894 135.541946 474.817894 132.411813 C 474.817894 128.586095 475.687376 125.282066 477.078546 122.847518 C 478.643612 120.239074 480.382575 119.0218 482.643227 119.0218 C 484.556086 119.0218 486.121152 120.41297 487.512322 123.369207 C 488.207907 124.760377 488.729596 125.977651 489.251285 126.673236 C 490.468559 129.107784 492.381418 130.846746 494.468173 132.237917 C 496.554928 133.455191 498.81558 134.150776 501.250128 134.150776 Z M 561.592133 108.066335 C 561.244341 110.500883 560.896548 112.761534 560.722652 114.84829 C 560.548756 116.761149 560.374859 118.674008 560.374859 120.065178 C 560.374859 123.021414 561.070444 125.282066 562.461615 127.021029 C 563.678889 128.586095 565.417851 129.455576 567.678503 129.455576 C 571.678117 129.455576 574.982146 126.49934 577.59059 120.760763 C 580.025138 114.84829 581.764101 106.153476 582.807478 94.676322 C 582.981375 93.632945 582.981375 92.067878 583.155271 89.981123 C 583.67696 83.894754 584.372545 80.242932 585.415922 79.025658 C 586.4593 77.808384 588.719951 76.59111 592.023981 75.373836 C 595.501906 74.330459 598.805935 73.80877 601.936068 73.80877 C 604.022823 73.80877 605.413993 73.982666 606.283475 74.678251 C 606.97906 75.19994 607.326852 76.417214 607.326852 77.98228 C 607.326852 79.025658 607.152956 80.764621 606.805164 83.199168 C 606.457371 85.807613 605.58789 89.981123 604.544512 95.893596 C 602.979446 103.718928 601.936068 109.457505 601.588275 112.761534 C 601.066587 116.23946 600.718794 118.847904 600.718794 120.934659 C 600.718794 123.890896 601.240483 125.977651 602.109964 127.368821 C 603.153342 128.586095 604.718408 129.28168 606.631267 129.28168 C 611.500363 129.28168 615.84777 126.49934 619.847384 120.934659 C 623.673102 115.196082 625.759857 108.414128 625.759857 100.588795 C 625.759857 96.067492 624.890376 91.372293 623.499205 86.677094 C 622.108035 82.155791 621.41245 79.547347 621.41245 79.199554 C 621.41245 77.460592 622.281932 76.069421 623.673102 75.19994 C 625.238168 74.156562 627.49882 73.80877 630.455056 73.80877 C 633.932982 73.80877 636.541426 74.852148 637.932596 76.938903 C 639.323766 79.025658 640.019351 83.025272 640.019351 89.111642 C 640.019351 95.7197 639.497662 101.806069 638.280388 107.022957 C 637.237011 112.413742 635.498048 117.282837 633.0635 121.630244 C 629.237782 128.586095 624.194791 134.324672 617.934525 138.498182 C 611.500363 142.671693 605.066201 144.758448 598.284246 144.758448 C 594.110736 144.758448 590.63281 143.888967 587.676574 141.976108 C 584.720337 140.237145 582.633582 137.628701 581.242412 134.150776 C 577.416694 137.628701 573.590976 140.411041 569.765258 142.150004 C 565.765644 143.888967 561.939926 144.758448 557.940312 144.758448 C 551.853942 144.758448 547.158743 143.019485 543.680817 139.54156 C 540.202892 135.889738 538.463929 131.194539 538.463929 125.10817 C 538.463929 121.978037 538.985618 117.282837 540.202892 111.022572 C 541.24627 104.762306 541.767958 100.241003 541.767958 97.11087 C 541.767958 94.502426 541.594062 92.93736 541.072373 92.067878 C 540.724581 91.198397 539.681203 90.502812 537.942241 89.981123 C 537.768344 89.981123 537.594448 89.807227 537.246655 89.63333 C 533.942626 88.589953 532.203664 87.372679 532.203664 85.633716 C 532.203664 84.416442 532.725352 83.199168 534.116523 81.981895 C 535.333796 80.764621 537.072759 79.547347 539.333411 78.503969 C 543.333025 76.938903 547.332639 75.547733 551.158357 74.504355 C 554.984075 73.460977 557.766415 72.939289 559.505378 72.939289 C 561.76603 72.939289 563.504992 73.460977 564.374474 74.504355 C 565.417851 75.547733 565.93954 77.286695 565.93954 79.547347 C 565.93954 80.590724 565.93954 81.634102 565.765644 83.199168 C 565.591747 84.590339 565.417851 86.155405 565.070059 88.068264 Z M 713.925266 78.851762 C 713.925266 80.069036 713.577473 83.546961 712.707992 88.937745 C 712.012407 92.93736 711.490718 96.241389 711.142926 98.675937 C 710.447341 104.58841 709.751755 109.979194 709.05617 114.84829 C 708.534482 119.717385 708.186689 122.673622 708.186689 123.543103 C 708.186689 124.934273 708.534482 125.977651 708.882274 126.49934 C 709.403963 126.847132 710.273444 127.194925 711.490718 127.194925 C 711.664614 127.194925 712.012407 127.194925 712.360199 127.021029 C 712.881888 127.021029 713.055785 127.021029 713.403577 127.021029 C 714.273058 127.021029 715.14254 127.194925 715.664229 127.716614 C 716.012021 128.064406 716.359814 128.759991 716.359814 129.629473 C 716.359814 131.020643 715.838125 132.585709 714.794747 133.976879 C 713.75137 135.36805 712.360199 136.75922 710.273444 137.976494 C 706.969415 140.063249 704.013179 141.802212 701.404734 142.845589 C 698.622394 143.888967 696.361743 144.584552 694.274987 144.584552 C 692.883817 144.584552 691.84044 144.236759 691.144855 143.71507 C 690.449269 143.193382 689.579788 142.150004 688.884203 140.584938 C 688.362514 139.193767 687.840825 137.628701 687.666929 135.889738 C 687.493033 134.324672 687.14524 133.455191 686.797448 133.455191 C 686.449655 133.455191 685.406278 133.976879 683.667315 135.194153 C 682.450041 136.063635 681.406663 136.75922 680.537182 137.454805 C 676.189775 140.237145 672.364057 142.150004 669.581717 143.193382 C 666.62548 144.410656 663.84314 144.932344 661.234696 144.932344 C 655.322223 144.932344 650.627024 142.845589 647.149098 138.498182 C 643.671173 134.150776 641.93221 128.412199 641.93221 121.282452 C 641.93221 116.413356 642.627795 111.544261 644.018965 106.675165 C 645.584032 101.979966 647.670787 97.284766 650.279231 92.93736 C 654.452742 86.677094 659.147941 81.634102 664.364829 78.156177 C 669.755613 74.504355 675.146398 72.765392 680.711078 72.765392 C 683.667315 72.765392 686.971344 73.460977 690.797062 75.026044 C 694.448884 76.417214 696.709535 77.112799 697.579017 77.112799 C 698.448498 77.112799 700.187461 76.417214 702.969801 75.026044 C 705.752141 73.460977 708.012793 72.765392 709.751755 72.765392 C 710.969029 72.765392 712.012407 73.287081 712.881888 74.504355 C 713.577473 75.547733 713.925266 76.938903 713.925266 78.851762 Z M 691.84044 94.676322 C 691.84044 91.372293 691.144855 88.763849 689.927581 87.024886 C 688.53641 85.112027 686.797448 84.242546 684.710693 84.242546 C 682.797834 84.242546 680.884975 84.764235 679.146012 85.807613 C 677.407049 87.024886 675.668086 88.763849 673.929124 91.024501 C 670.972887 94.676322 668.712236 99.197625 666.973273 104.58841 C 665.060414 109.979194 664.190933 114.84829 664.190933 119.369593 C 664.190933 122.673622 664.712621 125.282066 666.103792 127.021029 C 667.321066 128.933888 669.060028 129.803369 671.32068 129.803369 C 673.059642 129.803369 674.972501 129.28168 676.711464 128.064406 C 678.624323 127.021029 680.363286 125.282066 682.102248 122.847518 C 684.884589 119.195696 687.319137 114.674393 689.058099 109.283609 C 690.797062 104.066721 691.84044 99.197625 691.84044 94.676322 Z M 691.84044 94.676322 " stroke="#ffffff" stroke-width="10.0479" stroke-opacity="1" stroke-miterlimit="4"/></g><g fill="#005ae0" fill-opacity="1"><g transform="translate(13.202646, 16.886281)"><g><path d="M 1.96875 -1.5625 L 1.296875 -0.34375 C 1.242188 -0.25 1.203125 -0.1875 1.171875 -0.15625 C 1.148438 -0.125 1.125 -0.109375 1.09375 -0.109375 C 1.039062 -0.109375 0.992188 -0.1875 0.953125 -0.34375 C 0.953125 -0.363281 0.953125 -0.378906 0.953125 -0.390625 L 0.65625 -1.640625 C 0.59375 -1.285156 0.539062 -0.992188 0.5 -0.765625 C 0.46875 -0.535156 0.453125 -0.40625 0.453125 -0.375 C 0.453125 -0.34375 0.453125 -0.316406 0.453125 -0.296875 C 0.460938 -0.285156 0.472656 -0.28125 0.484375 -0.28125 C 0.492188 -0.269531 0.503906 -0.257812 0.515625 -0.25 C 0.566406 -0.21875 0.59375 -0.179688 0.59375 -0.140625 C 0.59375 -0.0859375 0.566406 -0.046875 0.515625 -0.015625 C 0.460938 0.00390625 0.367188 0.015625 0.234375 0.015625 C 0.117188 0.015625 0.0351562 0.00390625 -0.015625 -0.015625 C -0.0664062 -0.0351562 -0.09375 -0.0703125 -0.09375 -0.125 C -0.09375 -0.144531 -0.0859375 -0.160156 -0.078125 -0.171875 C -0.0664062 -0.191406 -0.0507812 -0.207031 -0.03125 -0.21875 C -0.03125 -0.226562 -0.0195312 -0.234375 0 -0.234375 C 0.0703125 -0.273438 0.117188 -0.328125 0.140625 -0.390625 C 0.148438 -0.421875 0.164062 -0.484375 0.1875 -0.578125 C 0.207031 -0.671875 0.238281 -0.828125 0.28125 -1.046875 C 0.320312 -1.296875 0.347656 -1.46875 0.359375 -1.5625 C 0.378906 -1.65625 0.390625 -1.726562 0.390625 -1.78125 C 0.390625 -1.8125 0.382812 -1.835938 0.375 -1.859375 C 0.363281 -1.890625 0.347656 -1.910156 0.328125 -1.921875 C 0.316406 -1.921875 0.304688 -1.925781 0.296875 -1.9375 C 0.234375 -1.96875 0.203125 -2 0.203125 -2.03125 C 0.203125 -2.09375 0.25 -2.140625 0.34375 -2.171875 C 0.445312 -2.203125 0.59375 -2.21875 0.78125 -2.21875 C 0.925781 -2.21875 1.019531 -2.128906 1.0625 -1.953125 C 1.0625 -1.941406 1.066406 -1.929688 1.078125 -1.921875 L 1.25 -1.109375 C 1.257812 -1.066406 1.269531 -1.03125 1.28125 -1 C 1.300781 -0.976562 1.316406 -0.96875 1.328125 -0.96875 C 1.328125 -0.96875 1.34375 -0.988281 1.375 -1.03125 C 1.40625 -1.070312 1.4375 -1.125 1.46875 -1.1875 L 1.859375 -1.90625 C 1.910156 -2 1.945312 -2.0625 1.96875 -2.09375 C 2 -2.132812 2.03125 -2.164062 2.0625 -2.1875 C 2.082031 -2.195312 2.109375 -2.203125 2.140625 -2.203125 C 2.179688 -2.203125 2.234375 -2.203125 2.296875 -2.203125 C 2.441406 -2.203125 2.546875 -2.191406 2.609375 -2.171875 C 2.671875 -2.148438 2.703125 -2.113281 2.703125 -2.0625 C 2.703125 -2.03125 2.679688 -2 2.640625 -1.96875 C 2.628906 -1.96875 2.625 -1.960938 2.625 -1.953125 C 2.625 -1.953125 2.617188 -1.953125 2.609375 -1.953125 C 2.566406 -1.929688 2.535156 -1.894531 2.515625 -1.84375 C 2.503906 -1.8125 2.492188 -1.769531 2.484375 -1.71875 C 2.472656 -1.664062 2.460938 -1.585938 2.453125 -1.484375 C 2.421875 -1.285156 2.398438 -1.109375 2.390625 -0.953125 C 2.378906 -0.796875 2.375 -0.664062 2.375 -0.5625 C 2.375 -0.457031 2.375 -0.390625 2.375 -0.359375 C 2.382812 -0.328125 2.394531 -0.304688 2.40625 -0.296875 C 2.414062 -0.285156 2.429688 -0.273438 2.453125 -0.265625 C 2.503906 -0.234375 2.53125 -0.191406 2.53125 -0.140625 C 2.53125 -0.078125 2.492188 -0.0351562 2.421875 -0.015625 C 2.347656 0.00390625 2.203125 0.015625 1.984375 0.015625 C 1.835938 0.015625 1.738281 0.0078125 1.6875 0 C 1.632812 -0.0195312 1.609375 -0.0546875 1.609375 -0.109375 C 1.609375 -0.160156 1.632812 -0.203125 1.6875 -0.234375 C 1.75 -0.265625 1.78125 -0.28125 1.78125 -0.28125 C 1.832031 -0.332031 1.882812 -0.640625 1.9375 -1.203125 C 1.945312 -1.359375 1.957031 -1.476562 1.96875 -1.5625 Z M 1.96875 -1.5625 "/></g></g></g><g fill="#005ae0" fill-opacity="1"><g transform="translate(15.793685, 16.886281)"><g><path d="M 1.640625 -1.4375 C 1.640625 -1.414062 1.628906 -1.34375 1.609375 -1.21875 C 1.597656 -1.125 1.585938 -1.050781 1.578125 -1 C 1.554688 -0.863281 1.539062 -0.738281 1.53125 -0.625 C 1.519531 -0.519531 1.515625 -0.457031 1.515625 -0.4375 C 1.515625 -0.40625 1.519531 -0.382812 1.53125 -0.375 C 1.539062 -0.363281 1.554688 -0.359375 1.578125 -0.359375 C 1.585938 -0.359375 1.597656 -0.359375 1.609375 -0.359375 C 1.617188 -0.359375 1.625 -0.359375 1.625 -0.359375 C 1.644531 -0.359375 1.660156 -0.351562 1.671875 -0.34375 C 1.679688 -0.332031 1.6875 -0.316406 1.6875 -0.296875 C 1.6875 -0.265625 1.675781 -0.234375 1.65625 -0.203125 C 1.632812 -0.171875 1.601562 -0.140625 1.5625 -0.109375 C 1.488281 -0.0664062 1.421875 -0.03125 1.359375 0 C 1.296875 0.0195312 1.242188 0.03125 1.203125 0.03125 C 1.171875 0.03125 1.144531 0.0234375 1.125 0.015625 C 1.101562 0.00390625 1.085938 -0.015625 1.078125 -0.046875 C 1.066406 -0.078125 1.054688 -0.113281 1.046875 -0.15625 C 1.046875 -0.195312 1.039062 -0.21875 1.03125 -0.21875 C 1.019531 -0.21875 0.992188 -0.203125 0.953125 -0.171875 C 0.929688 -0.148438 0.910156 -0.132812 0.890625 -0.125 C 0.785156 -0.0625 0.703125 -0.0195312 0.640625 0 C 0.578125 0.03125 0.515625 0.046875 0.453125 0.046875 C 0.316406 0.046875 0.207031 0 0.125 -0.09375 C 0.0507812 -0.195312 0.015625 -0.328125 0.015625 -0.484375 C 0.015625 -0.597656 0.03125 -0.707031 0.0625 -0.8125 C 0.09375 -0.925781 0.140625 -1.03125 0.203125 -1.125 C 0.296875 -1.269531 0.398438 -1.378906 0.515625 -1.453125 C 0.640625 -1.535156 0.765625 -1.578125 0.890625 -1.578125 C 0.953125 -1.578125 1.023438 -1.5625 1.109375 -1.53125 C 1.203125 -1.5 1.253906 -1.484375 1.265625 -1.484375 C 1.285156 -1.484375 1.328125 -1.5 1.390625 -1.53125 C 1.453125 -1.5625 1.503906 -1.578125 1.546875 -1.578125 C 1.578125 -1.578125 1.597656 -1.5625 1.609375 -1.53125 C 1.628906 -1.507812 1.640625 -1.476562 1.640625 -1.4375 Z M 1.140625 -1.09375 C 1.140625 -1.164062 1.125 -1.222656 1.09375 -1.265625 C 1.0625 -1.304688 1.023438 -1.328125 0.984375 -1.328125 C 0.941406 -1.328125 0.898438 -1.3125 0.859375 -1.28125 C 0.816406 -1.257812 0.773438 -1.222656 0.734375 -1.171875 C 0.671875 -1.085938 0.617188 -0.984375 0.578125 -0.859375 C 0.535156 -0.742188 0.515625 -0.632812 0.515625 -0.53125 C 0.515625 -0.457031 0.53125 -0.398438 0.5625 -0.359375 C 0.59375 -0.316406 0.628906 -0.296875 0.671875 -0.296875 C 0.710938 -0.296875 0.753906 -0.304688 0.796875 -0.328125 C 0.835938 -0.359375 0.878906 -0.398438 0.921875 -0.453125 C 0.984375 -0.535156 1.035156 -0.632812 1.078125 -0.75 C 1.117188 -0.875 1.140625 -0.988281 1.140625 -1.09375 Z M 1.140625 -1.09375 "/></g></g></g><g fill="#005ae0" fill-opacity="1"><g transform="translate(17.485445, 16.886281)"><g><path d="M 0.75 -1.828125 L 0.6875 -1.421875 C 0.6875 -1.410156 0.6875 -1.40625 0.6875 -1.40625 C 0.6875 -1.40625 0.6875 -1.398438 0.6875 -1.390625 C 0.6875 -1.378906 0.6875 -1.367188 0.6875 -1.359375 C 0.695312 -1.359375 0.703125 -1.359375 0.703125 -1.359375 C 0.710938 -1.359375 0.71875 -1.359375 0.71875 -1.359375 C 0.726562 -1.367188 0.738281 -1.375 0.75 -1.375 L 0.859375 -1.4375 C 0.929688 -1.476562 1 -1.507812 1.0625 -1.53125 C 1.125 -1.550781 1.1875 -1.5625 1.25 -1.5625 C 1.375 -1.5625 1.46875 -1.523438 1.53125 -1.453125 C 1.59375 -1.378906 1.625 -1.273438 1.625 -1.140625 C 1.625 -1.023438 1.609375 -0.890625 1.578125 -0.734375 C 1.546875 -0.578125 1.53125 -0.476562 1.53125 -0.4375 C 1.53125 -0.40625 1.535156 -0.382812 1.546875 -0.375 C 1.554688 -0.363281 1.578125 -0.359375 1.609375 -0.359375 C 1.609375 -0.359375 1.613281 -0.359375 1.625 -0.359375 C 1.632812 -0.359375 1.644531 -0.359375 1.65625 -0.359375 C 1.675781 -0.359375 1.691406 -0.351562 1.703125 -0.34375 C 1.710938 -0.332031 1.71875 -0.316406 1.71875 -0.296875 C 1.71875 -0.265625 1.703125 -0.234375 1.671875 -0.203125 C 1.648438 -0.171875 1.617188 -0.140625 1.578125 -0.109375 C 1.503906 -0.0546875 1.429688 -0.0195312 1.359375 0 C 1.285156 0.03125 1.21875 0.046875 1.15625 0.046875 C 1.082031 0.046875 1.035156 0.0351562 1.015625 0.015625 C 0.992188 -0.00390625 0.984375 -0.0390625 0.984375 -0.09375 C 0.984375 -0.125 1 -0.210938 1.03125 -0.359375 C 1.03125 -0.378906 1.03125 -0.394531 1.03125 -0.40625 C 1.0625 -0.582031 1.082031 -0.710938 1.09375 -0.796875 C 1.113281 -0.890625 1.125 -0.957031 1.125 -1 C 1.125 -1.070312 1.113281 -1.125 1.09375 -1.15625 C 1.070312 -1.1875 1.035156 -1.203125 0.984375 -1.203125 C 0.878906 -1.203125 0.796875 -1.144531 0.734375 -1.03125 C 0.679688 -0.914062 0.640625 -0.71875 0.609375 -0.4375 C 0.609375 -0.40625 0.609375 -0.367188 0.609375 -0.328125 C 0.597656 -0.203125 0.582031 -0.125 0.5625 -0.09375 C 0.53125 -0.0625 0.472656 -0.03125 0.390625 0 C 0.316406 0.0195312 0.242188 0.03125 0.171875 0.03125 C 0.128906 0.03125 0.0976562 0.0195312 0.078125 0 C 0.0546875 -0.0078125 0.046875 -0.0351562 0.046875 -0.078125 C 0.046875 -0.117188 0.0546875 -0.210938 0.078125 -0.359375 C 0.109375 -0.503906 0.132812 -0.617188 0.15625 -0.703125 C 0.1875 -0.929688 0.210938 -1.128906 0.234375 -1.296875 C 0.265625 -1.472656 0.28125 -1.597656 0.28125 -1.671875 C 0.28125 -1.734375 0.273438 -1.773438 0.265625 -1.796875 C 0.253906 -1.816406 0.226562 -1.832031 0.1875 -1.84375 C 0.101562 -1.875 0.0625 -1.910156 0.0625 -1.953125 C 0.0625 -1.972656 0.0703125 -1.992188 0.09375 -2.015625 C 0.113281 -2.046875 0.140625 -2.066406 0.171875 -2.078125 C 0.265625 -2.128906 0.363281 -2.164062 0.46875 -2.1875 C 0.570312 -2.21875 0.65625 -2.234375 0.71875 -2.234375 C 0.738281 -2.234375 0.753906 -2.222656 0.765625 -2.203125 C 0.785156 -2.179688 0.796875 -2.15625 0.796875 -2.125 C 0.796875 -2.09375 0.785156 -2.015625 0.765625 -1.890625 C 0.765625 -1.859375 0.757812 -1.835938 0.75 -1.828125 Z M 0.75 -1.828125 "/></g></g></g><g fill="#005ae0" fill-opacity="1"><g transform="translate(19.203654, 16.886281)"><g><path d="M 1.640625 -1.4375 C 1.640625 -1.414062 1.628906 -1.34375 1.609375 -1.21875 C 1.597656 -1.125 1.585938 -1.050781 1.578125 -1 C 1.554688 -0.863281 1.539062 -0.738281 1.53125 -0.625 C 1.519531 -0.519531 1.515625 -0.457031 1.515625 -0.4375 C 1.515625 -0.40625 1.519531 -0.382812 1.53125 -0.375 C 1.539062 -0.363281 1.554688 -0.359375 1.578125 -0.359375 C 1.585938 -0.359375 1.597656 -0.359375 1.609375 -0.359375 C 1.617188 -0.359375 1.625 -0.359375 1.625 -0.359375 C 1.644531 -0.359375 1.660156 -0.351562 1.671875 -0.34375 C 1.679688 -0.332031 1.6875 -0.316406 1.6875 -0.296875 C 1.6875 -0.265625 1.675781 -0.234375 1.65625 -0.203125 C 1.632812 -0.171875 1.601562 -0.140625 1.5625 -0.109375 C 1.488281 -0.0664062 1.421875 -0.03125 1.359375 0 C 1.296875 0.0195312 1.242188 0.03125 1.203125 0.03125 C 1.171875 0.03125 1.144531 0.0234375 1.125 0.015625 C 1.101562 0.00390625 1.085938 -0.015625 1.078125 -0.046875 C 1.066406 -0.078125 1.054688 -0.113281 1.046875 -0.15625 C 1.046875 -0.195312 1.039062 -0.21875 1.03125 -0.21875 C 1.019531 -0.21875 0.992188 -0.203125 0.953125 -0.171875 C 0.929688 -0.148438 0.910156 -0.132812 0.890625 -0.125 C 0.785156 -0.0625 0.703125 -0.0195312 0.640625 0 C 0.578125 0.03125 0.515625 0.046875 0.453125 0.046875 C 0.316406 0.046875 0.207031 0 0.125 -0.09375 C 0.0507812 -0.195312 0.015625 -0.328125 0.015625 -0.484375 C 0.015625 -0.597656 0.03125 -0.707031 0.0625 -0.8125 C 0.09375 -0.925781 0.140625 -1.03125 0.203125 -1.125 C 0.296875 -1.269531 0.398438 -1.378906 0.515625 -1.453125 C 0.640625 -1.535156 0.765625 -1.578125 0.890625 -1.578125 C 0.953125 -1.578125 1.023438 -1.5625 1.109375 -1.53125 C 1.203125 -1.5 1.253906 -1.484375 1.265625 -1.484375 C 1.285156 -1.484375 1.328125 -1.5 1.390625 -1.53125 C 1.453125 -1.5625 1.503906 -1.578125 1.546875 -1.578125 C 1.578125 -1.578125 1.597656 -1.5625 1.609375 -1.53125 C 1.628906 -1.507812 1.640625 -1.476562 1.640625 -1.4375 Z M 1.140625 -1.09375 C 1.140625 -1.164062 1.125 -1.222656 1.09375 -1.265625 C 1.0625 -1.304688 1.023438 -1.328125 0.984375 -1.328125 C 0.941406 -1.328125 0.898438 -1.3125 0.859375 -1.28125 C 0.816406 -1.257812 0.773438 -1.222656 0.734375 -1.171875 C 0.671875 -1.085938 0.617188 -0.984375 0.578125 -0.859375 C 0.535156 -0.742188 0.515625 -0.632812 0.515625 -0.53125 C 0.515625 -0.457031 0.53125 -0.398438 0.5625 -0.359375 C 0.59375 -0.316406 0.628906 -0.296875 0.671875 -0.296875 C 0.710938 -0.296875 0.753906 -0.304688 0.796875 -0.328125 C 0.835938 -0.359375 0.878906 -0.398438 0.921875 -0.453125 C 0.984375 -0.535156 1.035156 -0.632812 1.078125 -0.75 C 1.117188 -0.875 1.140625 -0.988281 1.140625 -1.09375 Z M 1.140625 -1.09375 "/></g></g></g><g fill="#005ae0" fill-opacity="1"><g transform="translate(20.895414, 16.886281)"><g><path d="M 0.5625 -0.203125 C 0.613281 -0.203125 0.65625 -0.210938 0.6875 -0.234375 C 0.71875 -0.265625 0.734375 -0.304688 0.734375 -0.359375 C 0.734375 -0.410156 0.675781 -0.472656 0.5625 -0.546875 C 0.53125 -0.566406 0.507812 -0.582031 0.5 -0.59375 C 0.351562 -0.695312 0.253906 -0.785156 0.203125 -0.859375 C 0.148438 -0.929688 0.125 -1.015625 0.125 -1.109375 C 0.125 -1.242188 0.175781 -1.351562 0.28125 -1.4375 C 0.394531 -1.53125 0.539062 -1.578125 0.71875 -1.578125 C 0.78125 -1.578125 0.84375 -1.566406 0.90625 -1.546875 C 0.976562 -1.535156 1.046875 -1.519531 1.109375 -1.5 C 1.160156 -1.476562 1.191406 -1.453125 1.203125 -1.421875 C 1.210938 -1.398438 1.21875 -1.363281 1.21875 -1.3125 C 1.21875 -1.238281 1.207031 -1.179688 1.1875 -1.140625 C 1.164062 -1.097656 1.132812 -1.078125 1.09375 -1.078125 C 1.039062 -1.078125 1 -1.109375 0.96875 -1.171875 C 0.957031 -1.191406 0.945312 -1.207031 0.9375 -1.21875 C 0.914062 -1.257812 0.890625 -1.289062 0.859375 -1.3125 C 0.828125 -1.332031 0.789062 -1.34375 0.75 -1.34375 C 0.707031 -1.34375 0.671875 -1.328125 0.640625 -1.296875 C 0.617188 -1.273438 0.609375 -1.242188 0.609375 -1.203125 C 0.609375 -1.140625 0.671875 -1.070312 0.796875 -1 C 0.816406 -0.976562 0.832031 -0.96875 0.84375 -0.96875 C 0.988281 -0.875 1.082031 -0.789062 1.125 -0.71875 C 1.175781 -0.644531 1.203125 -0.554688 1.203125 -0.453125 C 1.203125 -0.304688 1.140625 -0.1875 1.015625 -0.09375 C 0.898438 0 0.742188 0.046875 0.546875 0.046875 C 0.390625 0.046875 0.253906 0.0195312 0.140625 -0.03125 C 0.0234375 -0.09375 -0.03125 -0.160156 -0.03125 -0.234375 C -0.03125 -0.328125 -0.015625 -0.398438 0.015625 -0.453125 C 0.0546875 -0.515625 0.0976562 -0.546875 0.140625 -0.546875 C 0.179688 -0.546875 0.21875 -0.507812 0.25 -0.4375 C 0.269531 -0.40625 0.285156 -0.378906 0.296875 -0.359375 C 0.328125 -0.304688 0.363281 -0.265625 0.40625 -0.234375 C 0.457031 -0.210938 0.507812 -0.203125 0.5625 -0.203125 Z M 0.5625 -0.203125 "/></g></g></g><g fill="#005ae0" fill-opacity="1"><g transform="translate(22.162514, 16.886281)"><g><path d="M 0.828125 -2.015625 C 0.828125 -1.941406 0.789062 -1.878906 0.71875 -1.828125 C 0.65625 -1.773438 0.578125 -1.75 0.484375 -1.75 C 0.398438 -1.75 0.332031 -1.765625 0.28125 -1.796875 C 0.238281 -1.835938 0.21875 -1.890625 0.21875 -1.953125 C 0.21875 -2.035156 0.25 -2.101562 0.3125 -2.15625 C 0.382812 -2.207031 0.472656 -2.234375 0.578125 -2.234375 C 0.648438 -2.234375 0.707031 -2.210938 0.75 -2.171875 C 0.800781 -2.128906 0.828125 -2.078125 0.828125 -2.015625 Z M 0.0625 -0.09375 C 0.0625 -0.125 0.078125 -0.21875 0.109375 -0.375 C 0.117188 -0.457031 0.128906 -0.523438 0.140625 -0.578125 C 0.160156 -0.679688 0.175781 -0.773438 0.1875 -0.859375 C 0.195312 -0.941406 0.203125 -1.003906 0.203125 -1.046875 C 0.203125 -1.097656 0.195312 -1.128906 0.1875 -1.140625 C 0.175781 -1.160156 0.148438 -1.175781 0.109375 -1.1875 C 0.109375 -1.195312 0.109375 -1.203125 0.109375 -1.203125 C 0.0234375 -1.222656 -0.015625 -1.253906 -0.015625 -1.296875 C -0.015625 -1.328125 0 -1.351562 0.03125 -1.375 C 0.0625 -1.40625 0.113281 -1.4375 0.1875 -1.46875 C 0.28125 -1.5 0.367188 -1.523438 0.453125 -1.546875 C 0.535156 -1.566406 0.601562 -1.578125 0.65625 -1.578125 C 0.6875 -1.578125 0.707031 -1.566406 0.71875 -1.546875 C 0.738281 -1.523438 0.75 -1.5 0.75 -1.46875 C 0.75 -1.445312 0.738281 -1.382812 0.71875 -1.28125 C 0.707031 -1.175781 0.695312 -1.082031 0.6875 -1 C 0.664062 -0.851562 0.644531 -0.726562 0.625 -0.625 C 0.613281 -0.53125 0.609375 -0.46875 0.609375 -0.4375 C 0.609375 -0.40625 0.613281 -0.382812 0.625 -0.375 C 0.632812 -0.363281 0.65625 -0.359375 0.6875 -0.359375 C 0.695312 -0.359375 0.703125 -0.359375 0.703125 -0.359375 C 0.710938 -0.359375 0.722656 -0.359375 0.734375 -0.359375 C 0.765625 -0.359375 0.785156 -0.351562 0.796875 -0.34375 C 0.816406 -0.332031 0.828125 -0.3125 0.828125 -0.28125 C 0.828125 -0.25 0.816406 -0.21875 0.796875 -0.1875 C 0.773438 -0.15625 0.738281 -0.128906 0.6875 -0.109375 C 0.613281 -0.0546875 0.53125 -0.0195312 0.4375 0 C 0.351562 0.03125 0.28125 0.046875 0.21875 0.046875 C 0.164062 0.046875 0.125 0.03125 0.09375 0 C 0.0703125 -0.0195312 0.0625 -0.0507812 0.0625 -0.09375 Z M 0.0625 -0.09375 "/></g></g></g><g fill="#005ae0" fill-opacity="1"><g transform="translate(22.956464, 16.886281)"><g><path d="M 0.5625 -0.203125 C 0.613281 -0.203125 0.65625 -0.210938 0.6875 -0.234375 C 0.71875 -0.265625 0.734375 -0.304688 0.734375 -0.359375 C 0.734375 -0.410156 0.675781 -0.472656 0.5625 -0.546875 C 0.53125 -0.566406 0.507812 -0.582031 0.5 -0.59375 C 0.351562 -0.695312 0.253906 -0.785156 0.203125 -0.859375 C 0.148438 -0.929688 0.125 -1.015625 0.125 -1.109375 C 0.125 -1.242188 0.175781 -1.351562 0.28125 -1.4375 C 0.394531 -1.53125 0.539062 -1.578125 0.71875 -1.578125 C 0.78125 -1.578125 0.84375 -1.566406 0.90625 -1.546875 C 0.976562 -1.535156 1.046875 -1.519531 1.109375 -1.5 C 1.160156 -1.476562 1.191406 -1.453125 1.203125 -1.421875 C 1.210938 -1.398438 1.21875 -1.363281 1.21875 -1.3125 C 1.21875 -1.238281 1.207031 -1.179688 1.1875 -1.140625 C 1.164062 -1.097656 1.132812 -1.078125 1.09375 -1.078125 C 1.039062 -1.078125 1 -1.109375 0.96875 -1.171875 C 0.957031 -1.191406 0.945312 -1.207031 0.9375 -1.21875 C 0.914062 -1.257812 0.890625 -1.289062 0.859375 -1.3125 C 0.828125 -1.332031 0.789062 -1.34375 0.75 -1.34375 C 0.707031 -1.34375 0.671875 -1.328125 0.640625 -1.296875 C 0.617188 -1.273438 0.609375 -1.242188 0.609375 -1.203125 C 0.609375 -1.140625 0.671875 -1.070312 0.796875 -1 C 0.816406 -0.976562 0.832031 -0.96875 0.84375 -0.96875 C 0.988281 -0.875 1.082031 -0.789062 1.125 -0.71875 C 1.175781 -0.644531 1.203125 -0.554688 1.203125 -0.453125 C 1.203125 -0.304688 1.140625 -0.1875 1.015625 -0.09375 C 0.898438 0 0.742188 0.046875 0.546875 0.046875 C 0.390625 0.046875 0.253906 0.0195312 0.140625 -0.03125 C 0.0234375 -0.09375 -0.03125 -0.160156 -0.03125 -0.234375 C -0.03125 -0.328125 -0.015625 -0.398438 0.015625 -0.453125 C 0.0546875 -0.515625 0.0976562 -0.546875 0.140625 -0.546875 C 0.179688 -0.546875 0.21875 -0.507812 0.25 -0.4375 C 0.269531 -0.40625 0.285156 -0.378906 0.296875 -0.359375 C 0.328125 -0.304688 0.363281 -0.265625 0.40625 -0.234375 C 0.457031 -0.210938 0.507812 -0.203125 0.5625 -0.203125 Z M 0.5625 -0.203125 "/></g></g></g><g fill="#005ae0" fill-opacity="1"><g transform="translate(24.223564, 16.886281)"><g><path d="M 0.65625 -0.78125 C 0.644531 -0.726562 0.632812 -0.675781 0.625 -0.625 C 0.625 -0.582031 0.625 -0.546875 0.625 -0.515625 C 0.625 -0.453125 0.640625 -0.398438 0.671875 -0.359375 C 0.703125 -0.328125 0.742188 -0.3125 0.796875 -0.3125 C 0.878906 -0.3125 0.945312 -0.375 1 -0.5 C 1.0625 -0.632812 1.101562 -0.832031 1.125 -1.09375 C 1.132812 -1.113281 1.140625 -1.144531 1.140625 -1.1875 C 1.148438 -1.332031 1.164062 -1.414062 1.1875 -1.4375 C 1.207031 -1.46875 1.253906 -1.492188 1.328125 -1.515625 C 1.410156 -1.546875 1.488281 -1.5625 1.5625 -1.5625 C 1.601562 -1.5625 1.632812 -1.550781 1.65625 -1.53125 C 1.675781 -1.519531 1.6875 -1.5 1.6875 -1.46875 C 1.6875 -1.4375 1.679688 -1.394531 1.671875 -1.34375 C 1.660156 -1.289062 1.644531 -1.195312 1.625 -1.0625 C 1.582031 -0.882812 1.554688 -0.753906 1.546875 -0.671875 C 1.535156 -0.597656 1.53125 -0.539062 1.53125 -0.5 C 1.53125 -0.4375 1.539062 -0.390625 1.5625 -0.359375 C 1.582031 -0.328125 1.617188 -0.3125 1.671875 -0.3125 C 1.773438 -0.3125 1.867188 -0.375 1.953125 -0.5 C 2.046875 -0.625 2.09375 -0.773438 2.09375 -0.953125 C 2.09375 -1.054688 2.078125 -1.160156 2.046875 -1.265625 C 2.015625 -1.367188 2 -1.425781 2 -1.4375 C 2 -1.476562 2.015625 -1.507812 2.046875 -1.53125 C 2.085938 -1.550781 2.140625 -1.5625 2.203125 -1.5625 C 2.285156 -1.5625 2.34375 -1.535156 2.375 -1.484375 C 2.40625 -1.441406 2.421875 -1.351562 2.421875 -1.21875 C 2.421875 -1.0625 2.40625 -0.921875 2.375 -0.796875 C 2.351562 -0.679688 2.316406 -0.578125 2.265625 -0.484375 C 2.179688 -0.328125 2.066406 -0.195312 1.921875 -0.09375 C 1.773438 0 1.628906 0.046875 1.484375 0.046875 C 1.390625 0.046875 1.304688 0.0234375 1.234375 -0.015625 C 1.171875 -0.0546875 1.125 -0.117188 1.09375 -0.203125 C 1.007812 -0.117188 0.921875 -0.0546875 0.828125 -0.015625 C 0.742188 0.0234375 0.65625 0.046875 0.5625 0.046875 C 0.4375 0.046875 0.332031 0.00390625 0.25 -0.078125 C 0.164062 -0.160156 0.125 -0.269531 0.125 -0.40625 C 0.125 -0.476562 0.132812 -0.582031 0.15625 -0.71875 C 0.1875 -0.851562 0.203125 -0.957031 0.203125 -1.03125 C 0.203125 -1.09375 0.195312 -1.128906 0.1875 -1.140625 C 0.175781 -1.160156 0.15625 -1.175781 0.125 -1.1875 C 0.113281 -1.195312 0.109375 -1.203125 0.109375 -1.203125 C 0.0234375 -1.222656 -0.015625 -1.253906 -0.015625 -1.296875 C -0.015625 -1.316406 0 -1.34375 0.03125 -1.375 C 0.0625 -1.40625 0.101562 -1.429688 0.15625 -1.453125 C 0.238281 -1.492188 0.320312 -1.523438 0.40625 -1.546875 C 0.5 -1.566406 0.566406 -1.578125 0.609375 -1.578125 C 0.660156 -1.578125 0.695312 -1.5625 0.71875 -1.53125 C 0.738281 -1.507812 0.75 -1.472656 0.75 -1.421875 C 0.75 -1.398438 0.742188 -1.375 0.734375 -1.34375 C 0.734375 -1.3125 0.734375 -1.273438 0.734375 -1.234375 Z M 0.65625 -0.78125 "/></g></g></g><g fill="#005ae0" fill-opacity="1"><g transform="translate(26.661784, 16.886281)"><g><path d="M 1.640625 -1.4375 C 1.640625 -1.414062 1.628906 -1.34375 1.609375 -1.21875 C 1.597656 -1.125 1.585938 -1.050781 1.578125 -1 C 1.554688 -0.863281 1.539062 -0.738281 1.53125 -0.625 C 1.519531 -0.519531 1.515625 -0.457031 1.515625 -0.4375 C 1.515625 -0.40625 1.519531 -0.382812 1.53125 -0.375 C 1.539062 -0.363281 1.554688 -0.359375 1.578125 -0.359375 C 1.585938 -0.359375 1.597656 -0.359375 1.609375 -0.359375 C 1.617188 -0.359375 1.625 -0.359375 1.625 -0.359375 C 1.644531 -0.359375 1.660156 -0.351562 1.671875 -0.34375 C 1.679688 -0.332031 1.6875 -0.316406 1.6875 -0.296875 C 1.6875 -0.265625 1.675781 -0.234375 1.65625 -0.203125 C 1.632812 -0.171875 1.601562 -0.140625 1.5625 -0.109375 C 1.488281 -0.0664062 1.421875 -0.03125 1.359375 0 C 1.296875 0.0195312 1.242188 0.03125 1.203125 0.03125 C 1.171875 0.03125 1.144531 0.0234375 1.125 0.015625 C 1.101562 0.00390625 1.085938 -0.015625 1.078125 -0.046875 C 1.066406 -0.078125 1.054688 -0.113281 1.046875 -0.15625 C 1.046875 -0.195312 1.039062 -0.21875 1.03125 -0.21875 C 1.019531 -0.21875 0.992188 -0.203125 0.953125 -0.171875 C 0.929688 -0.148438 0.910156 -0.132812 0.890625 -0.125 C 0.785156 -0.0625 0.703125 -0.0195312 0.640625 0 C 0.578125 0.03125 0.515625 0.046875 0.453125 0.046875 C 0.316406 0.046875 0.207031 0 0.125 -0.09375 C 0.0507812 -0.195312 0.015625 -0.328125 0.015625 -0.484375 C 0.015625 -0.597656 0.03125 -0.707031 0.0625 -0.8125 C 0.09375 -0.925781 0.140625 -1.03125 0.203125 -1.125 C 0.296875 -1.269531 0.398438 -1.378906 0.515625 -1.453125 C 0.640625 -1.535156 0.765625 -1.578125 0.890625 -1.578125 C 0.953125 -1.578125 1.023438 -1.5625 1.109375 -1.53125 C 1.203125 -1.5 1.253906 -1.484375 1.265625 -1.484375 C 1.285156 -1.484375 1.328125 -1.5 1.390625 -1.53125 C 1.453125 -1.5625 1.503906 -1.578125 1.546875 -1.578125 C 1.578125 -1.578125 1.597656 -1.5625 1.609375 -1.53125 C 1.628906 -1.507812 1.640625 -1.476562 1.640625 -1.4375 Z M 1.140625 -1.09375 C 1.140625 -1.164062 1.125 -1.222656 1.09375 -1.265625 C 1.0625 -1.304688 1.023438 -1.328125 0.984375 -1.328125 C 0.941406 -1.328125 0.898438 -1.3125 0.859375 -1.28125 C 0.816406 -1.257812 0.773438 -1.222656 0.734375 -1.171875 C 0.671875 -1.085938 0.617188 -0.984375 0.578125 -0.859375 C 0.535156 -0.742188 0.515625 -0.632812 0.515625 -0.53125 C 0.515625 -0.457031 0.53125 -0.398438 0.5625 -0.359375 C 0.59375 -0.316406 0.628906 -0.296875 0.671875 -0.296875 C 0.710938 -0.296875 0.753906 -0.304688 0.796875 -0.328125 C 0.835938 -0.359375 0.878906 -0.398438 0.921875 -0.453125 C 0.984375 -0.535156 1.035156 -0.632812 1.078125 -0.75 C 1.117188 -0.875 1.140625 -0.988281 1.140625 -1.09375 Z M 1.140625 -1.09375 "/></g></g></g></svg>